<svg xmlns="http://www.w3.org/2000/svg" xmlns:xlink="http://www.w3.org/1999/xlink" xml:space="preserve" width="2066" height="2066"><g opacity=".6"><defs><path id="a" d="M0 0h2066v2066H0z" opacity=".6"/></defs><clipPath id="b"><use xlink:href="#a" overflow="visible"/></clipPath><radialGradient id="c" cx="1045.397" cy="1491.653" r="1569.888" gradientUnits="userSpaceOnUse"><stop offset="0" style="stop-color:#fff"/><stop offset=".117" style="stop-color:#fff;stop-opacity:.8828"/><stop offset="1" style="stop-color:#fff;stop-opacity:0"/></radialGradient><path fill="url(#c)" d="m-172.727 719.569 595.504-343.626 109.29 63.098-101.927 58.816-44.659-25.785-1.033 1.788 43.628 25.188-546.047 315.089 1.033 1.788L430.14 500.24l109.288 63.1-101.926 58.814-52.021-30.034-1.033 1.788 50.988 29.438-497.62 287.145 1.033 1.788L437.5 624.539l109.291 63.098-101.928 58.814-59.381-34.282-1.033 1.787 58.349 33.688-449.194 259.2 1.033 1.792 450.229-259.797 109.288 63.098-101.93 58.813-66.744-38.534-1.033 1.788 65.711 37.938L49.39 1103.199l1.033 1.792 401.803-231.856 109.286 63.098-101.926 58.816-74.105-42.785-1.033 1.792 73.069 42.184-352.34 203.315 1.033 1.792 353.375-203.913 109.286 63.098-101.924 58.812-81.466-47.033-1.033 1.791 80.431 46.438-303.914 175.367 1.033 1.792 304.949-175.965 109.288 63.098-101.928 58.813-88.826-51.283-1.033 1.792 87.791 50.686-255.486 147.424 1.033 1.792 256.521-148.021 109.286 63.098-101.922 58.813-96.19-55.536-1.033 1.792 95.155 54.938-207.064 119.48 1.033 1.792 208.097-120.078 109.288 63.094-101.926 58.816-103.55-59.785-1.033 1.792 102.515 59.188-158.636 91.537 1.033 1.792 55.679-32.128 109.286 63.094-101.926 58.816-6.918-3.995-1.033 1.792 5.883 3.397-6.218 3.587 1.033 1.792 7.253-4.185 109.284 63.094-61.783 35.65 1.033 1.792 62.817-36.248 109.288 63.098-101.922 58.813-125.637-72.536-1.033 1.792 124.6 71.938-13.358 7.707 1.033 1.792 14.394-8.305 109.286 63.094-68.927 39.774 1.033 1.792 69.961-40.372 109.288 63.098-101.926 58.816-244.35-141.08-1.033 1.792 243.316 140.48L608.556 2066h4.138l17.138-9.891 17.127 9.891h4.136l-19.195-11.08 101.926-58.817 109.286 63.099-11.787 6.798h4.138l9.717-5.604 9.71 5.604h4.136l-11.779-6.799 101.924-58.813L1062.819 2066h4.137l-115.716-66.807 101.924-58.816L1270.747 2066h4.137l-219.65-126.816 101.924-58.813L1478.679 2066h4.136l-323.591-186.824 101.928-58.816L1686.61 2066h4.136l-427.524-246.83 101.92-58.816L1894.538 2066h4.136l-531.462-306.838 101.924-58.816L2102.47 2066h4.136l-635.399-366.849 101.924-58.812 648.345 374.32 1.033-1.791-647.313-373.725 101.929-58.816 544.351 314.282 1.033-1.791-543.318-313.681 101.925-58.817 440.36 254.243 1.033-1.791-439.324-253.643 101.924-58.816 336.367 194.2 1.033-1.791-335.33-193.604 101.924-58.812 232.373 134.16 1.033-1.791-231.34-133.564 11.799-6.807-1.033-1.792-12.832 7.404-109.283-63.094 67.362-38.87-1.033-1.792-68.399 39.468-109.284-63.094 101.924-58.816 351.087 202.698 1.033-1.792-350.05-202.101 18.937-10.927-1.033-1.792-19.974 11.524-109.288-63.098 74.505-42.99-1.033-1.792-75.538 43.588-109.288-63.094 101.924-58.816 469.806 271.243 1.033-1.791-468.769-270.646 26.079-15.047-1.033-1.792-27.116 15.645-109.288-63.094 81.651-47.114-1.032-1.788-82.681 47.708-109.292-63.096 101.928-58.816 588.52 339.782 1.033-1.792-587.486-339.183 33.221-19.171-1.033-1.788-34.254 19.767-109.288-63.098 88.789-51.237-1.032-1.788-89.823 51.832-109.288-63.098 101.924-58.814 707.238 408.324 1.033-1.792-706.201-407.724 40.363-23.293-1.032-1.787-41.396 23.888-109.293-63.098 95.937-55.358-1.033-1.788-96.965 55.954-109.292-63.098 101.928-58.816 825.952 476.863 1.033-1.792-824.919-476.263 47.506-27.413-1.033-1.788-48.535 28.008-109.292-63.1 101.928-58.814 833.313 481.111 1.033-1.788-834.119-481.578-.113-.196-.113.065-109.288-63.098 54.648-31.535-1.033-1.788-55.681 32.13-109.293-63.098 110.217-63.598-1.033-1.788-111.245 64.193-109.288-63.098 165.78-95.664-1.033-1.788-166.82 96.266-109.288-63.098L1166.16-53.014l-1.033-1.788L942.746 73.521 385.48-248.217l-1.033 1.788L940.682 74.713l-101.928 58.814L385.48-128.169l-1.033 1.788 452.24 261.101-101.93 58.816L385.48-8.119l-1.033 1.788 348.244 201.06-101.926 58.814L385.48 111.929l-1.033 1.788L628.7 254.735l-101.928 58.816-141.292-81.574-1.033 1.788 140.258 80.979-101.928 58.814-37.297-21.534-1.033 1.788 36.266 20.938-594.473 343.032 1.033 1.787zM432.206 499.05l101.926-58.816 109.291 63.098-101.928 58.816-109.289-63.098zm443.352 258.353L984.844 820.5l-101.926 58.814-109.286-63.096 101.926-58.815zm0-2.385L766.27 691.92l101.926-58.814 109.288 63.096-101.926 58.816zm133.439 439.57 109.29 63.098-101.928 58.816-109.288-63.098 101.926-58.816zm0-2.385-109.289-63.098 101.926-58.816 109.288 63.098-101.925 58.816zm116.647 189.781-101.924 58.813-109.284-63.094 101.922-58.816 109.286 63.097zm-107.219-64.288 101.929-58.816 109.283 63.094-101.928 58.816-109.284-63.094zm103.994-60.01 101.924-58.813 109.288 63.094-101.928 58.816-109.284-63.097zm-2.065-1.195-109.291-63.094 101.926-58.816 109.288 63.098-101.923 58.812zm-116.653-187.392 101.928-58.816 109.288 63.098-101.928 58.816-109.288-63.098zm-2.066-1.195-109.288-63.094 101.928-58.816 109.288 63.094-101.928 58.816zm-7.361-124.299-109.288-63.096 101.926-58.816 109.286 63.1-101.924 58.812zm-111.356-61.903 109.29 63.098-101.928 58.816-109.288-63.102 101.926-58.812zm7.362 124.299 109.287 63.098-101.926 58.813-109.286-63.098 101.925-58.813zm7.363 124.295 109.288 63.098-101.928 58.816-109.288-63.098 101.928-58.816zm116.648 187.4-101.924 58.813-109.289-63.098L905 1254.598l109.291 63.098zm7.36 124.295-101.926 58.813-109.286-63.094 101.926-58.816 109.286 63.097zm7.362 124.299-101.926 58.813-109.286-63.098 101.922-58.813 109.29 63.098zm-107.22-64.292 101.926-58.813 109.288 63.094-101.928 58.816-109.286-63.097zm103.994-60.007 101.922-58.813 109.288 63.094-101.924 58.816-109.286-63.097zm103.992-60.007 101.928-58.816 109.284 63.098-101.924 58.816-109.288-63.098zm103.994-60.006 101.924-58.816 109.288 63.098-101.924 58.813-109.288-63.095zm101.924-61.202-109.284-63.098 101.924-58.816 109.288 63.098-101.928 58.816zm-111.354-64.292-109.288-63.098 101.928-58.816 109.289 63.102-101.929 58.812zm-116.649-187.396 101.925-58.817 109.288 63.102-101.925 58.813-109.288-63.098zm-2.065-1.191-109.288-63.098 101.924-58.814 109.288 63.096-101.924 58.816zM988.979 820.5l101.926-58.814 109.288 63.098-101.924 58.814-109.29-63.098zm-2.066-1.192L877.624 756.21l101.926-58.814 109.289 63.098-101.926 58.814zM870.262 631.914l101.928-58.816 109.289 63.098-101.926 58.816-109.291-63.098zM862.9 507.615l101.928-58.817 109.29 63.1-101.928 58.814-109.29-63.097zm107.224 64.29-101.928 58.814-109.289-63.098 101.926-58.814 109.291 63.098zM866.13 631.912l-101.928 58.816-109.288-63.098 101.928-58.816 109.288 63.098zm-101.926 61.201 109.288 63.098-101.928 58.814-109.289-63.096 101.929-58.816zm7.362 124.299 109.286 63.096-101.928 58.816-109.286-63.098 101.928-58.814zm7.36 124.296 109.288 63.098-101.928 58.816-109.288-63.098 101.928-58.816zm7.363 124.3 109.286 63.098-101.928 58.813-109.286-63.094 101.928-58.817zm116.646 187.396-101.924 58.813-109.286-63.098 101.922-58.813 109.288 63.098zm7.364 124.299-101.926 58.813-109.288-63.098 101.926-58.813 109.288 63.098zm7.356 124.295-101.922 58.813-109.284-63.094 101.922-58.813 109.284 63.094zm7.364 124.299-101.926 58.813-109.286-63.094 101.926-58.816 109.286 63.097zm7.36 124.299-101.924 58.813-109.286-63.098 101.924-58.813 109.286 63.098zm-107.218-64.292 101.926-58.813 109.286 63.098-101.924 58.813-109.288-63.098zm103.996-60.007 101.922-58.813 109.288 63.098-101.924 58.813-109.286-63.098zm103.989-60.007 101.928-58.816 109.288 63.098-101.928 58.816-109.288-63.098zm103.998-60.007 101.92-58.816 109.288 63.098-101.92 58.813-109.288-63.095zm103.989-60.007 101.929-58.816 109.288 63.098-101.928 58.813-109.289-63.095zm103.994-60.01 101.925-58.813 109.288 63.098-101.924 58.813-109.289-63.098zm103.994-60.007 101.924-58.816 109.289 63.098-101.925 58.816-109.288-63.098zm-2.069-1.195-109.288-63.094 101.928-58.816 109.288 63.094-101.928 58.816zm-7.361-124.298-109.284-63.094 101.924-58.816 109.284 63.098-101.924 58.812zm-111.35-64.288-109.292-63.098 101.924-58.813 109.293 63.098-101.925 58.813zm-116.656-187.393 101.929-58.818 109.288 63.096-101.925 58.816-109.292-63.094zm-2.066-1.194-109.284-63.098 101.924-58.816 109.288 63.098-101.928 58.816zm-116.648-187.397 101.928-58.814 109.288 63.098-101.928 58.814-109.288-63.098zm-2.067-1.193-109.286-63.098 101.926-58.814 109.288 63.098-101.928 58.814zM974.256 571.905l101.928-58.814 109.288 63.098-101.929 58.814-109.287-63.098zm-7.362-124.297 101.926-58.816 109.288 63.098-101.924 58.816-109.29-63.098zm-2.066-1.195-109.291-63.098 101.928-58.814 109.288 63.098-101.925 58.814zm-2.066 1.192-101.928 58.817-109.288-63.098 101.926-58.816 109.29 63.097zm-103.994 60.01-101.926 58.814-109.29-63.098 101.928-58.814 109.288 63.098zm-103.992 60.006-101.928 58.817L543.56 563.34l101.926-58.816 109.29 63.097zm-101.928 61.202 109.291 63.098-101.929 58.814-109.288-63.098 101.926-58.814zm7.364 124.299 109.286 63.096-101.926 58.816-109.288-63.098 101.928-58.814zm7.36 124.296 109.286 63.096-101.926 58.816-109.286-63.094 101.926-58.818zm7.36 124.297 109.289 63.098-101.926 58.816-109.288-63.098 101.925-58.816zm116.647 187.397-101.922 58.813-109.286-63.094 101.922-58.813 109.286 63.094zm7.364 124.299-101.926 58.816-109.288-63.098 101.926-58.816 109.288 63.098zm7.36 124.299-101.922 58.813-109.288-63.098 101.924-58.813 109.286 63.098zm7.362 124.295-101.928 58.816-109.284-63.098 101.926-58.813 109.286 63.095zm-103.996 60.011-101.922 58.813-109.284-63.094 101.922-58.816 109.284 63.097zm2.068 1.19 109.289 63.098-101.924 58.813-109.286-63.094 101.921-58.817zm116.65 187.397-101.926 58.816-109.286-63.098 101.926-58.816 109.286 63.098zm2.068 1.194 109.289 63.098-101.926 58.813-109.286-63.098 101.923-58.813zm2.07-1.194 101.924-58.813 109.284 63.099-101.921 58.811-109.287-63.097zm103.993-60.007 101.926-58.816 109.288 63.098-101.928 58.816-109.286-63.098zm103.996-60.007 101.92-58.813 109.288 63.094-101.924 58.813-109.284-63.094zm103.99-60.007 101.928-58.816 109.284 63.098-101.924 58.813-109.288-63.095zm103.993-60.011 101.925-58.813 109.288 63.098-101.925 58.813-109.288-63.098zm103.994-60.007 101.925-58.813 109.288 63.094-101.929 58.816-109.284-63.097zm103.994-60.006 101.924-58.813 109.284 63.094-101.924 58.816-109.284-63.097zm103.991-60.007 101.928-58.816 109.284 63.098-101.924 58.816-109.288-63.098zm101.927-61.201-109.288-63.098 101.924-58.816 109.289 63.098-101.925 58.816zm-111.358-64.292-109.283-63.098 101.924-58.813 109.284 63.094-101.925 58.817zm-7.363-124.299-109.284-63.094 101.928-58.816 109.284 63.094-101.928 58.816zm-111.351-64.288-109.288-63.098 101.924-58.816 109.292 63.098-101.928 58.816zm-116.652-187.397 101.928-58.814 109.288 63.098-101.924 58.814-109.292-63.098zm-2.066-1.192-109.289-63.098 101.929-58.814 109.288 63.098-101.928 58.814zm-116.648-187.395 101.928-58.816 109.288 63.098-101.928 58.816-109.288-63.098zm-2.067-1.195-109.288-63.098 101.928-58.814 109.288 63.098-101.928 58.814zM1078.25 511.898l101.924-58.814 109.289 63.098-101.925 58.814-109.288-63.098zm-7.364-124.299 101.929-58.817 109.288 63.1-101.929 58.814-109.288-63.097zm-2.066-1.192-109.289-63.098 101.928-58.816 109.288 63.098-101.927 58.816zm-111.354-64.291-109.288-63.098 101.928-58.816 109.288 63.098-101.928 58.816zm-2.066 1.193-101.926 58.814-109.29-63.098 101.928-58.814L955.4 323.309zm-103.992 60.006L749.48 442.132l-109.291-63.098 101.928-58.816 109.291 63.097zm-103.994 60.009-101.926 58.814-109.29-63.098 101.928-58.814 109.288 63.098zM439.565 623.347l101.928-58.816 109.288 63.1-101.928 58.814-109.288-63.098zm7.363 124.299 101.928-58.816 109.288 63.098-101.928 58.816-109.288-63.098zm7.362 124.299 101.928-58.816 109.289 63.098-101.928 58.816-109.289-63.098zm7.362 124.295 101.928-58.813 109.286 63.098-101.928 58.813-109.286-63.098zm7.362 124.299 101.922-58.813 109.289 63.098-101.922 58.813-109.289-63.098zm7.361 124.299 101.926-58.813 109.288 63.094-101.928 58.816-109.286-63.097zm7.364 124.299 101.922-58.816 109.288 63.098-101.922 58.816-109.288-63.098zm109.286 65.482 109.288 63.098-101.928 58.816-109.286-63.098 101.926-58.816zm-205.917 118.823 101.922-58.813 109.286 63.094-101.922 58.816-109.286-63.097zm7.361 124.299 101.924-58.816 109.284 63.098-101.926 58.813-109.282-63.095zm111.35 64.288 101.926-58.813 109.288 63.094-101.926 58.816-109.288-63.097zm7.364 124.299 101.924-58.813 109.286 63.094-101.924 58.816-109.286-63.097zm111.356 64.288 101.922-58.813 109.288 63.098-101.924 58.813-109.286-63.098zm220.641 127.39-109.286-63.098 101.924-58.813 109.286 63.098-101.924 58.813zM949.171 1998l-109.286-63.099 101.926-58.812 109.286 63.094L949.171 1998zm103.993-60.012-109.285-63.094 101.924-58.813 109.284 63.094-101.923 58.813zm103.993-60.007-109.284-63.093 101.925-58.817 109.284 63.099-101.925 58.811zm103.994-60.006-109.284-63.098 101.925-58.813 109.284 63.098-101.925 58.813zm103.991-60.006-109.284-63.099 101.928-58.812 109.284 63.093-101.928 58.818zm103.998-60.012-109.284-63.094 101.92-58.813 109.284 63.094-101.92 58.813zm103.99-60.007-109.284-63.094 101.928-58.816 109.28 63.094-101.924 58.816zm103.994-60.007-109.284-63.094 101.924-58.816 109.284 63.094-101.924 58.816zm103.99-60.006-109.284-63.093 101.928-58.817 109.284 63.094-101.928 58.816zm96.634-181.917 109.284 63.094-101.925 58.813-109.283-63.094 101.924-58.813zm-2.066-1.195-101.924 58.813-109.288-63.094 101.924-58.816 109.288 63.097zm-116.649-187.396 109.288 63.098-101.928 58.816-109.288-63.098 101.928-58.816zm-2.069-1.195-101.925 58.816-109.288-63.098 101.929-58.816 109.284 63.098zm-7.36-124.298-101.924 58.816-109.288-63.098 101.924-58.813 109.288 63.095zm-111.355-64.289-101.924 58.816-109.292-63.102 101.928-58.813 109.288 63.099zm-7.36-124.298-101.928 58.816-109.288-63.098 101.924-58.816 109.292 63.098zm-111.354-64.29-101.929 58.814-109.288-63.096 101.929-58.816 109.288 63.098zm-7.36-124.298-101.928 58.814-109.288-63.098 101.924-58.814 109.292 63.098zm-111.359-64.29-101.924 58.814-109.288-63.098 101.924-58.816 109.288 63.1zm-7.36-124.299-101.924 58.814-109.292-63.098 101.928-58.814 109.288 63.098zm-7.359-124.298-101.925 58.816-109.292-63.1 101.929-58.814 109.288 63.098zm-111.355-64.291-101.928 58.814-109.288-63.097 101.928-58.816 109.288 63.099zm-111.354-64.29-101.928 58.814-109.288-63.097 101.928-58.816 109.288 63.099zM942.746 75.905l109.289 63.096-101.928 58.816-109.29-63.097 101.929-58.815zm-103.995 60.007L948.04 199.01l-101.928 58.816-109.288-63.098 101.927-58.816zm-103.994 60.009 109.289 63.098-101.926 58.814-109.29-63.098 101.927-58.814zm-103.993 60.007 109.29 63.098-101.928 58.816-109.29-63.098 101.928-58.816zm-103.993 60.009 109.288 63.098-101.926 58.814-109.291-63.098 101.929-58.814z" clip-path="url(#b)"/></g></svg>