<svg xmlns="http://www.w3.org/2000/svg" xml:space="preserve" width="937.453" height="871.456"><path fill="#110FAB" d="M446.401 813.341 14.21 624.551l434.814-239.407s449.718 192.961 416.533 201.902c-33.187 8.938-419.156 226.295-419.156 226.295z" opacity=".2"/><path fill="#110FAB" d="m134.681 235.962 374.618-214.6c6.73-3.855 15.47-5.695 23.027-3.953 10.614 2.447 20.572 5.788 20.549 15.083l.566 348.203-32.958 19.471c10.785 5.25 339.625 165.308 340.17 165.699l.79 13.434a16.197 16.197 0 0 1-8.079 14.045c-55.977 32.42-383.879 221.979-383.879 221.979a34.842 34.842 0 0 1-34.871-.002L122.957 635.183a10.527 10.527 0 0 1-5.259-9.099l-.541-359.973a34.845 34.845 0 0 1 17.524-30.149z"/><path fill="#92CDF9" d="m128.195 624.903 425.577-242.825.876-347.437c.026-10.036-10.816-16.338-19.525-11.351l-392.45 224.816a27.54 27.54 0 0 0-13.85 23.826l-.628 352.971z"/><path fill="#0553DD" d="m486.327 214.508.351.137.381-.53.035 12.401-.732.423zM431.54 168.712l.958-.554.092 32.699-.45.628-.509-.197z"/><path fill="#0262CD" d="m246.339 452.978.011 3.802-60.892 35.157-.011-3.803zM246.372 464.388l.009 3.804-60.89 35.157-.012-3.805z"/><path fill="#0553DD" d="m501.488 192.947.425.435-14.854 20.734-.379.529-.353-.136-12.035-4.645.479-.924 11.552 4.476.396.152.336-.47z"/><path fill="#0553DD" d="m486.246 186.071.352.136.38-.529.077 27.42-.336.47-.396-.152zM486.172 159.964l.733-.423.068 25.119-.336.471-.396-.153z"/><path fill="#5BB59B" d="M507.628 184.376c4.261-.028 5.927 5.494 4.618 11.503-1.31 6.008-4.959 12.201-8.979 17.424-4.778 6.202-10.567 11.367-16.242 14.645-7.502 4.33-14.805 5.361-19.324 1.123-2.299-2.154-3.676-6.055-3.021-10.58.317-1.016.589-2.032.81-3.042.04-.179.076-.355.11-.532.152-.409.32-.821.506-1.234 1.303-2.909 3.371-5.658 4.265-8.606 1.761-5.784-1.76-8.728-4.631-11.091-2.871-2.362-5.157-7.528-1.73-12.878 2.023-3.162 5.221-4.748 7.244-7.927 3.384-5.31 1.143-10.305 1.591-15.671.636-7.72 6.139-14.182 12.102-17.625 7.629-4.405 16.015-3.865 15.913 5.311-.021 2.152-.496 4.678.215 6.263.993 2.231 3.842 1.705 5.96 2.282 4.985 1.418 5.393 10.861.786 18.303-2.431 3.932-6.352 8.985-4.946 11.595.819 1.533 3.032.741 4.753.737zm-6.14 8.571-14.433 20.15-.077-27.419 14.853-20.733-.423-.435-14.435 20.15-.068-25.12-.732.423.068 25.014-11.552-4.458-.479.907 12.035 4.645.077 27.344-11.555-4.475-.476.923 12.034 4.644.035 12.431.732-.423-.035-12.401 14.854-20.732-.423-.435"/><path fill="#0553DD" d="m451.483 211.636.552.573-19.336 26.994-.507.707-.451-.176-15.663-6.067.617-1.184 15.042 5.822.509.196.448-.628z"/><path fill="#5BB59B" d="M459.465 200.494c5.433-.031 7.623 6.825 6.134 14.423-.034.177-.07.354-.11.532a36.226 36.226 0 0 1-.81 3.042c-2.137 6.848-6.323 13.723-10.877 19.642-6.222 8.078-13.762 14.809-21.158 19.079-9.763 5.637-19.275 6.982-25.159 1.469a14.558 14.558 0 0 1-.251-.246c-2.455-2.472-4.034-6.521-3.875-11.283.089-2.664.722-5.552 2.051-8.512 1.711-3.792 4.395-7.368 5.555-11.183 2.292-7.549-2.289-11.388-6.022-14.453-3.734-3.082-6.715-9.806-2.262-16.754 2.654-4.127 6.81-6.202 9.438-10.328a15.577 15.577 0 0 0 1.494-3.012c2.127-5.816.089-11.425.579-17.396.625-7.542 4.816-14.163 10.154-18.893a34.53 34.53 0 0 1 5.61-4.053c9.93-5.733 20.835-5.032 20.703 6.917-.035 2.808-.645 6.096.277 8.141 1.292 2.918 5.016 2.211 7.754 2.997 6.496 1.827 7.024 14.118 1.027 23.807-3.174 5.123-8.263 11.709-6.433 15.111 1.063 1.995 3.939.967 6.181.953zm-7.982 11.142-18.789 26.237-.101-35.685 19.337-26.994-.552-.573-18.788 26.237-.092-32.699-.958.554.092 32.576-15.041-5.82-.619 1.183 15.664 6.068.101 35.586-15.042-5.821-.617 1.184 15.664 6.067.045 16.167.958-.553-.045-16.145 19.336-26.994-.553-.575"/><path fill="#0553DD" d="m431.741 239.734.451.176.507-.707.045 16.145-.957.553zM431.636 202.719l.452.175.505-.706.101 35.685-.448.627-.509-.195zM399.692 231.875l.325.332-11.369 15.866-.28.392-.268-.104-9.195-3.544.351-.704 8.841 3.428.297.115.253-.353z"/><path fill="#0553DD" d="m388.1 248.361.268.104.28-.392.06 20.966-.252.353-.298-.114z"/><path fill="#0553DD" d="m399.753 253.613.327.33-11.37 15.882-.28.393-.269-.104-9.195-3.559.351-.706 8.842 3.429.297.114.252-.352z"/><path fill="#5BB59B" d="M403.36 247.153c-.16 4.762 1.42 8.811 3.875 11.283-1.313 3.758-3.621 7.495-6.125 10.735-3.654 4.744-8.083 8.698-12.426 11.206-5.733 3.309-11.316 4.1-14.769.864-2.348-2.21-3.448-6.813-1.219-11.763.996-2.229 2.584-4.33 3.255-6.581 1.355-4.43-1.332-6.688-3.538-8.479-2.192-1.815-3.938-5.751-1.326-9.837 1.56-2.424 3.997-3.637 5.542-6.069 2.584-4.054.88-7.884 1.221-11.988.485-5.899 4.691-10.839 9.251-13.472 5.833-3.367 12.241-2.957 12.167 4.056-.023 1.651-.386 3.579.154 4.791.767 1.698 2.953 1.295 4.562 1.76 3.812 1.074 4.116 8.291.604 13.982-1.868 3.008-4.862 6.876-3.784 8.865.463.87 1.507.767 2.556.647zm-3.607 6.459-11.045 15.427-.06-20.966 11.369-15.866-.325-.331-11.046 15.427-.054-19.216-.549.317.054 19.137-8.841-3.428-.351.705 9.195 3.544.058 20.917-8.841-3.429-.351.706 9.195 3.559.027 9.484.549-.317-.027-9.456 11.369-15.883-.326-.331"/><path fill="#0553DD" d="m388.161 270.114.269.104.28-.393.028 9.456-.55.317zM451.379 174.621l.551.572-19.337 26.995-.505.705-.452-.174-15.664-6.068.618-1.183 15.041 5.82.51.197.449-.628z"/><path fill="#F9FBFC" d="M423.634 147.013c.238-.137.475-.268.711-.391-5.338 4.73-9.529 11.351-10.154 18.893-.489 5.971 1.549 11.58-.579 17.396-3.034-1.416-4.945-4.878-4.959-9.951-.027-9.534 6.684-21.157 14.981-25.947z"/><path fill="#F9FBFC" d="M538.659 46.77 146.941 272.927l.49 172.907 391.716-226.157-.488-172.907zm-367.27 289.924-.035-12.415 182.772-105.523.035 12.414-182.772 105.524m.502-26.926-.035-12.397 182.772-105.524.036 12.398-182.773 105.523m340.356-113.889c-1.31 6.008-4.961 12.201-8.979 17.424-4.778 6.202-10.567 11.367-16.242 14.645-7.502 4.33-14.808 5.362-19.324 1.123-2.299-2.154-3.676-6.055-3.021-10.58-2.137 6.849-6.323 13.724-10.877 19.642-6.223 8.078-13.762 14.809-21.158 19.079-9.764 5.637-19.275 6.982-25.159 1.469a9.673 9.673 0 0 1-.251-.246c-1.313 3.758-3.621 7.496-6.125 10.735-3.654 4.744-8.083 8.698-12.427 11.206-5.732 3.309-11.316 4.101-14.768.865-2.349-2.211-3.448-6.813-1.219-11.764.995-2.228 2.584-4.328 3.255-6.581 1.355-4.43-1.332-6.688-3.538-8.479-2.192-1.814-3.938-5.751-1.326-9.837 1.559-2.424 3.997-3.637 5.541-6.069 2.585-4.054.881-7.884 1.223-11.988.485-5.899 4.691-10.839 9.251-13.471 5.833-3.368 12.241-2.958 12.167 4.055-.023 1.652-.386 3.579.154 4.792.767 1.697 2.953 1.295 4.562 1.759 3.812 1.074 4.115 8.291.604 13.982-1.868 3.008-4.862 6.877-3.784 8.865.461.872 1.505.769 2.554.648.088-2.664.722-5.552 2.051-8.511 1.711-3.793 4.395-7.369 5.555-11.184 2.292-7.549-2.29-11.388-6.022-14.453-3.734-3.081-6.715-9.806-2.263-16.754 2.655-4.125 6.811-6.202 9.438-10.328a15.577 15.577 0 0 0 1.494-3.012c-3.034-1.416-4.945-4.878-4.959-9.951-.027-9.532 6.683-21.157 14.979-25.946.238-.138.476-.269.712-.392a34.486 34.486 0 0 1 5.61-4.053c9.93-5.733 20.835-5.03 20.703 6.918-.035 2.809-.646 6.095.277 8.14 1.292 2.918 5.015 2.211 7.754 2.997 6.496 1.827 7.023 14.119 1.026 23.807-3.173 5.123-8.262 11.709-6.432 15.111 1.063 1.996 3.938.968 6.181.953 5.433-.031 7.624 6.825 6.135 14.423.151-.409.32-.821.506-1.234 1.303-2.909 3.37-5.658 4.265-8.606 1.761-5.784-1.76-8.728-4.631-11.09-2.871-2.363-5.157-7.529-1.73-12.879 2.023-3.162 5.221-4.748 7.244-7.926 3.384-5.311 1.143-10.306 1.591-15.672.636-7.72 6.139-14.182 12.1-17.625 7.631-4.405 16.014-3.865 15.915 5.311-.023 2.152-.496 4.679.213 6.263.995 2.231 3.844 1.705 5.962 2.282 4.985 1.418 5.393 10.861.786 18.303-2.431 3.932-6.352 8.985-4.949 11.595.823 1.535 3.036.745 4.758.739 4.26-.031 5.926 5.492 4.618 11.5"/><path fill="#0553DD" d="m501.408 164.51.423.435-14.853 20.733-.38.529-.352-.136-12.036-4.645.479-.906 11.552 4.458.396.153.336-.471z"/><path fill="#0262CD" d="m372.098 391.8.011 3.803-60.878 35.147-.011-3.802zM372.065 380.39l.011 3.803-60.876 35.148-.011-3.805z"/><path fill="#0262CD" d="m147.433 445.834 391.714-226.157.405 142.64-391.716 226.158-.403-142.641zm238.369-32.246-.244-85.929-88.118 50.876.243 85.927 88.119-50.874m-125.74 72.596-.244-85.927-88.105 50.867.245 85.927 88.104-50.867"/><path fill="#0262CD" d="M341.537 366.37c5.845-3.375 10.607-.662 10.627 6.056.019 6.716-4.712 14.912-10.558 18.287-5.845 3.375-10.607.66-10.626-6.056-.02-6.718 4.712-14.913 10.557-18.287z"/><path fill="#0553DD" d="m388.043 228.404.549-.317.054 19.216-.252.353-.297-.115z"/><path fill="#F9FBFC" d="m297.44 378.536 88.118-50.876.244 85.929-88.119 50.875-.243-85.928zm44.097-12.166c-5.845 3.375-10.577 11.569-10.558 18.287.02 6.716 4.782 9.43 10.626 6.056 5.845-3.375 10.577-11.57 10.558-18.287-.018-6.718-4.781-9.431-10.626-6.056m30.539 17.823-.011-3.803-60.876 35.146.009 3.805 60.878-35.148m.033 11.41-.011-3.803-60.877 35.148.011 3.802 60.877-35.147"/><path fill="#0262CD" d="M215.797 438.965c5.859-3.382 10.607-.661 10.627 6.057.018 6.718-4.699 14.904-10.558 18.287-5.846 3.376-10.594.652-10.613-6.063-.019-6.718 4.698-14.905 10.544-18.281z"/><path fill="#F9FBFC" d="m171.713 451.123 88.105-50.867.244 85.927-88.104 50.866-.245-85.926zm44.083-12.158c-5.845 3.376-10.562 11.563-10.543 18.281.019 6.715 4.767 9.438 10.613 6.063 5.859-3.383 10.576-11.569 10.557-18.287-.019-6.718-4.767-9.439-10.627-6.057m30.554 17.815-.011-3.803-60.892 35.156.011 3.803 60.892-35.156m.031 11.412-.011-3.805-60.891 35.156.011 3.805 60.891-35.156"/><path fill="#0262CD" d="m354.126 218.756.036 12.414-182.773 105.524-.035-12.415zM354.628 191.846l.036 12.398-182.772 105.524-.036-12.397z"/><path fill="#FFF9FF" d="m128.438 624.871 425.353-245.299 300.812 173.856c8.688 5.022 8.688 17.563 0 22.585L463.005 802.311a27.541 27.541 0 0 1-27.56 0l-307.007-177.44z"/><g fill="#92CDF9"><path d="m246.164 632.418-21.177 12.162-21.412-12.104 21.178-12.162 21.411 12.104zM277.422 614.47l-21.177 12.159-21.412-12.104c8.471-4.862 12.707-7.295 21.178-12.159 8.565 4.841 12.847 7.261 21.411 12.104zM308.683 596.519c-8.471 4.863-12.707 7.295-21.178 12.162l-21.412-12.105c8.471-4.862 12.708-7.295 21.179-12.16 8.564 4.841 12.847 7.26 21.411 12.103zM339.945 578.566l-21.18 12.161c-8.563-4.841-12.847-7.26-21.411-12.102 8.472-4.866 12.708-7.299 21.18-12.163l21.411 12.104zM371.207 560.615l-21.18 12.162-21.411-12.104 21.179-12.162 21.412 12.104zM402.469 542.662l-21.18 12.162-21.411-12.102c8.472-4.867 12.708-7.299 21.18-12.164l21.411 12.104zM433.731 524.712l-21.18 12.161-21.411-12.104 21.18-12.161c8.564 4.841 12.847 7.26 21.411 12.104zM464.993 506.759l-21.179 12.162-21.412-12.102c8.472-4.867 12.709-7.3 21.18-12.164l21.411 12.104zM496.254 488.808l-21.178 12.162-21.413-12.104 21.181-12.162c8.564 4.842 12.845 7.263 21.41 12.104zM527.515 470.857l-21.178 12.162-21.411-12.104 21.179-12.162 21.41 12.104zM558.777 452.906l-21.179 12.162c-8.565-4.843-12.849-7.263-21.413-12.104l21.179-12.162c8.565 4.842 12.846 7.263 21.413 12.104zM590.033 434.958c-8.471 4.862-12.707 7.295-21.176 12.159-8.566-4.841-12.847-7.262-21.411-12.104l21.177-12.161c8.563 4.843 12.846 7.263 21.41 12.106zM276.217 649.408a114614.9 114614.9 0 0 1-21.178 12.16l-21.413-12.104 21.178-12.161c8.564 4.843 12.848 7.262 21.413 12.105zM307.476 631.457l-21.178 12.162-21.413-12.105 21.178-12.162c8.564 4.843 12.848 7.264 21.413 12.105zM338.736 613.507l-21.179 12.162c-8.565-4.844-12.848-7.263-21.413-12.106 8.471-4.864 12.708-7.297 21.179-12.159 8.566 4.84 12.848 7.262 21.413 12.103zM369.999 595.556l-21.181 12.162-21.413-12.105c8.471-4.865 12.707-7.298 21.18-12.162 8.565 4.84 12.847 7.262 21.414 12.105zM401.259 577.604l-21.179 12.161-21.414-12.104 21.18-12.162 21.413 12.105zM432.522 559.652l-21.18 12.162-21.413-12.104c8.472-4.867 12.708-7.3 21.18-12.164l21.413 12.106zM463.784 541.699c-8.472 4.865-12.708 7.297-21.18 12.164-8.565-4.843-12.848-7.265-21.413-12.105l21.179-12.162 21.414 12.103zM495.046 523.749l-21.181 12.161-21.413-12.105 21.181-12.162c8.566 4.843 12.849 7.262 21.413 12.106zM526.307 505.796c-8.472 4.867-12.707 7.297-21.179 12.162l-21.412-12.104 21.178-12.161c8.566 4.84 12.849 7.262 21.413 12.103zM557.568 487.845l-21.179 12.162-21.412-12.104 21.178-12.162 21.413 12.104zM588.829 469.895l-21.178 12.161c-8.566-4.841-12.85-7.262-21.413-12.104l21.178-12.161c8.564 4.841 12.846 7.263 21.413 12.104z"/><path d="M620.087 451.945c-14.204 8.155-21.306 12.233-35.508 20.39l-21.412-12.105c14.201-8.156 21.303-12.232 35.507-20.39 8.564 4.844 12.847 7.263 21.413 12.105zM320.262 658.362c-14.068 8.079-21.102 12.116-35.169 20.195l-21.414-12.104c14.067-8.079 21.102-12.119 35.17-20.195l21.413 12.104z"/><path d="M337.529 648.447c-8.47 4.865-12.706 7.297-21.177 12.16l-21.414-12.104 21.178-12.161c8.566 4.841 12.848 7.262 21.413 12.105zM368.79 630.497l-21.178 12.161c-8.566-4.843-12.848-7.265-21.414-12.105l21.179-12.162c8.565 4.843 12.848 7.262 21.413 12.106zM400.052 612.544l-21.18 12.161-21.413-12.104 21.18-12.161 21.413 12.104zM431.313 594.593l-21.18 12.162-21.413-12.105c8.473-4.863 12.707-7.298 21.179-12.162 8.566 4.842 12.849 7.262 21.414 12.105zM462.576 576.64c-8.472 4.865-12.708 7.3-21.181 12.164l-21.413-12.105 21.18-12.162 21.414 12.103zM493.837 558.689l-21.181 12.162-21.413-12.104c8.472-4.866 12.708-7.299 21.18-12.163l21.414 12.105zM525.1 540.736l-21.18 12.162-21.413-12.104c8.471-4.865 12.707-7.298 21.18-12.162 8.564 4.842 12.848 7.264 21.413 12.104zM556.361 522.786c-8.471 4.864-12.706 7.297-21.18 12.161l-21.413-12.104c8.472-4.864 12.709-7.299 21.181-12.164 8.565 4.844 12.846 7.265 21.412 12.107zM587.623 504.835l-21.179 12.162c-8.565-4.844-12.849-7.263-21.415-12.106 8.474-4.864 12.709-7.297 21.181-12.161 8.563 4.842 12.846 7.262 21.413 12.105zM618.883 486.884l-21.179 12.162c-8.565-4.843-12.849-7.263-21.415-12.105l21.179-12.162 21.415 12.105zM650.139 468.934l-21.176 12.162-21.415-12.106c8.472-4.862 12.707-7.295 21.178-12.159 8.566 4.84 12.85 7.262 21.413 12.103zM336.324 683.386l-21.177 12.162c-8.565-4.844-12.848-7.265-21.413-12.106a89045.8 89045.8 0 0 1 21.178-12.159c8.565 4.84 12.846 7.262 21.412 12.103zM367.583 665.436l-21.178 12.161-21.413-12.104 21.178-12.162 21.413 12.105zM398.844 647.484l-21.179 12.162-21.413-12.104 21.179-12.162c8.565 4.842 12.848 7.264 21.413 12.104zM430.105 629.533l-21.179 12.162-21.413-12.104c8.471-4.867 12.708-7.297 21.18-12.162l21.412 12.104zM461.367 611.583l-21.179 12.161-21.413-12.105 21.179-12.162c8.565 4.841 12.848 7.262 21.413 12.106zM492.628 593.63l-21.179 12.162-21.413-12.104 21.181-12.162 21.411 12.104zM523.892 575.679l-21.181 12.162c-8.563-4.843-12.847-7.263-21.413-12.105l21.181-12.162c8.565 4.84 12.847 7.262 21.413 12.105zM555.155 557.727c-8.474 4.864-12.709 7.297-21.181 12.161l-21.412-12.104c8.471-4.864 12.706-7.297 21.18-12.161l21.413 12.104zM586.416 539.775l-21.18 12.162c-8.564-4.844-12.848-7.263-21.413-12.105l21.18-12.162 21.413 12.105zM617.676 521.825l-21.18 12.159-21.413-12.104 21.18-12.162c8.565 4.845 12.848 7.263 21.413 12.107zM662.441 496.118c-13.872 7.967-20.81 11.95-34.684 19.915l-21.413-12.104 34.685-19.917c8.563 4.843 12.846 7.265 21.412 12.106z"/><path d="m680.194 485.923-21.178 12.162-21.413-12.105 21.178-12.16c8.566 4.841 12.846 7.262 21.413 12.103zM370.531 702.722l-21.177 12.162-21.412-12.104 21.178-12.162 21.411 12.104zM401.791 684.773c-8.473 4.862-12.708 7.297-21.178 12.159-8.565-4.841-12.847-7.26-21.412-12.104 8.471-4.862 12.707-7.295 21.178-12.159 8.564 4.842 12.846 7.264 21.412 12.104zM433.05 666.82c-8.471 4.867-12.707 7.299-21.178 12.162-8.564-4.842-12.847-7.261-21.412-12.102 8.471-4.865 12.708-7.3 21.179-12.162l21.411 12.102zM620.622 559.111l-177.489 101.92c-8.565-4.841-12.847-7.261-21.412-12.104 59.164-33.974 118.327-67.946 177.489-101.92l21.412 12.104zM651.882 541.161l-21.178 12.161-21.413-12.104c8.474-4.864 12.709-7.297 21.18-12.161l21.411 12.104zM683.141 523.21l-21.176 12.162-21.413-12.104 21.178-12.162c8.566 4.841 12.848 7.263 21.411 12.104zM714.4 505.262c-8.472 4.862-12.705 7.295-21.176 12.159l-21.411-12.104c8.472-4.864 12.705-7.297 21.176-12.159 8.566 4.841 12.846 7.263 21.411 12.104z"/></g><path fill="#92CDF9" d="m475.593 669.748 145.949-84.262 83.4 51.379-145.897 84.294z"/><path fill="#FFF9FF" d="m535.123 23.291-392.45 224.815a27.54 27.54 0 0 0-13.85 23.826l-.628 352.971 12.802-7.306C217.315 504.809 504.876 79.669 542.585 21.611a12.85 12.85 0 0 0-7.462 1.68z" opacity=".2"/><path fill="#CE9006" d="m280.329 314.977 4.665 2.711c-2.324-1.351-5.543-1.158-9.097.895l-4.666-2.711c3.554-2.053 6.774-2.245 9.098-.895z"/><path fill="#FCBD25" d="m262.875 343.901-4.665-2.712-.018-6.214 4.665 2.711z"/><path fill="#FCBD25" d="m225.858 365.273-4.664-2.711 37.016-21.373 4.665 2.712z"/><path fill="#F9FBFC" d="m225.841 359.057-4.665-2.71 37.017-21.372 4.664 2.711z"/><path fill="#F9FBFC" d="m225.858 365.273-4.664-2.711-.018-6.215 4.665 2.71z"/><path fill="#CE9006" d="m203.745 385.277-4.666-2.71c-2.293-1.333-3.716-4.167-3.727-8.198-.024-8.109 5.677-17.966 12.72-22.032l4.664 2.711c-7.042 4.065-12.742 13.923-12.72 22.031.013 4.031 1.435 6.865 3.729 8.198z"/><path fill="#FCBD25" d="M275.896 318.583c7.057-4.075 12.794-.821 12.816 7.288.023 8.109-5.677 17.982-12.733 22.056l-63.16 36.465c-7.042 4.067-12.78.797-12.803-7.312-.022-8.108 5.677-17.966 12.72-22.031l63.16-36.466zm-13.021 25.318-.017-6.215-37.017 21.372.017 6.216 37.017-21.373"/><path fill="#F9FBFC" d="m262.857 337.686.018 6.215-37.017 21.372-.017-6.216z"/><path fill="#CE9006" d="m212.736 355.048-4.664-2.712 63.158-36.464 4.666 2.711z"/><path fill="#F9FBFC" d="m506.893 333.684-4.666-3.428-.011-3.806 4.666 3.429zM445.969 348.055l-4.665-3.428 60.891-25.788 4.666 3.429z"/><path fill="#0262CD" d="m445.958 344.25-4.665-3.428 60.891-25.787 4.666 3.427z"/><path fill="#F9FBFC" d="m506.861 322.268-4.666-3.429-.011-3.804 4.666 3.427zM482.268 304.015c-.009-3.336-1.185-5.863-3.081-7.258l4.662 3.428c1.9 1.396 3.074 3.922 3.086 7.258.017 6.721-4.699 14.182-10.56 16.663-2.938 1.245-5.6.991-7.522-.422l-4.665-3.429c1.923 1.414 4.584 1.667 7.522.423 5.862-2.483 10.578-9.944 10.558-16.663zM446.001 359.471l-4.665-3.429 60.891-25.786 4.666 3.428z"/><path fill="#0262CD" d="m506.882 329.879.011 3.805-60.892 25.787-.01-3.805zM445.991 355.666l-4.666-3.429 60.893-25.787 4.664 3.429zM446.001 359.471l-4.665-3.429-.011-3.805 4.666 3.429zM479.187 296.756l4.662 3.428c-1.924-1.415-4.593-1.666-7.542-.416l-4.665-3.429c2.952-1.249 5.619-.998 7.545.417zM506.85 318.462l.011 3.806-60.892 25.788-.011-3.806zM445.969 348.056l-4.665-3.429-.011-3.805 4.665 3.428zM468.854 323.684l-4.664-3.429c-1.903-1.398-3.082-3.933-3.092-7.274-.02-6.72 4.699-14.166 10.543-16.641l4.665 3.429c-5.846 2.475-10.563 9.92-10.544 16.64.01 3.341 1.19 5.877 3.092 7.275z"/><path fill="#0262CD" d="M476.307 299.769c5.859-2.482 10.608.954 10.628 7.675.017 6.72-4.699 14.181-10.56 16.663-5.845 2.476-10.593-.977-10.612-7.698-.018-6.721 4.698-14.165 10.544-16.64z"/><path fill="#F9FBFC" d="m432.224 305.127 88.105-37.313.243 85.965-88.104 37.312-.244-85.964zm44.083-5.358c-5.846 2.475-10.563 9.92-10.544 16.64.019 6.72 4.768 10.173 10.612 7.697 5.86-2.481 10.576-9.942 10.56-16.663-.019-6.719-4.768-10.156-10.628-7.674m30.586 33.915-.011-3.805-60.892 25.787.011 3.805 60.892-25.787m-.032-11.416-.011-3.806-60.892 25.788.011 3.805 60.892-25.787"/><path fill="#92CDF9" d="m432.467 391.092-4.664-3.428-.243-85.965 4.664 3.428z"/><path fill="#92CDF9" d="m432.224 305.127-4.664-3.428 88.104-37.312 4.665 3.428z"/><path fill="#CE9006" d="m661.394 111.644-5.257 3.055c2.618-1.522 6.246-1.305 10.251 1.008l5.257-3.054c-4.005-2.312-7.633-2.53-10.251-1.009z"/><path fill="#FCBD25" d="m681.06 144.234 5.255-3.055.021-7.002-5.256 3.054zM722.767 168.313l5.255-3.054-41.707-24.08-5.255 3.055z"/><path fill="#F9FBFC" d="m722.787 161.312 5.255-3.056-41.706-24.079-5.256 3.054z"/><path fill="#F9FBFC" d="m722.767 168.314 5.255-3.055.02-7.003-5.255 3.056z"/><path fill="#CE9006" d="m747.683 190.854 5.255-3.055c2.586-1.502 4.188-4.696 4.201-9.236.026-9.137-6.396-20.243-14.331-24.824l-5.257 3.055c7.935 4.582 14.357 15.687 14.331 24.824-.012 4.541-1.615 7.735-4.199 9.236z"/><path fill="#FCBD25" d="M737.551 156.793c7.935 4.582 14.357 15.687 14.331 24.824-.025 9.137-6.489 12.82-14.424 8.238l-71.163-41.086c-7.952-4.59-14.374-15.714-14.349-24.851.026-9.137 6.491-12.803 14.441-8.211l71.164 41.086zm-56.491-12.559 41.707 24.079.02-7.002-41.707-24.08-.02 7.003"/><path fill="#F9FBFC" d="m681.08 137.231-.02 7.003 41.707 24.08.02-7.002z"/><path fill="#CE9006" d="m737.551 156.793 5.257-3.054-71.163-41.085-5.257 3.054z"/><path fill="#A04A58" d="m647.86 135.279-4.688 15.371.59 12.213s1.64 3.004 2.458 2.186c.819-.82 7.114-9.517 7.243-9.948.132-.431.677-18.184.677-18.184l-6.28-1.638zM727.587 177.48c-.274 1.365-1.713 18.09-1.713 18.09l.894 13.045 5.571 6.472 5.352-9.203s1.491-3.947.528-6.049c-.961-2.101-5.442-22.355-5.442-22.355h-5.19z"/><ellipse cx="714.85" cy="430.841" fill="#110FAB" opacity=".2" rx="82.73" ry="43.02"/><path fill="#110FAB" d="M673.758 286.46s-10.632 44.294-15.076 68.003c-4.447 23.71 2.544 85.206 2.544 85.206s2.222 3.703 7.409 3.703c5.186 0 10.792-73.35 10.792-73.35s6.926-53.927 10.632-53.186c.831.167 7.581 2.696 10.628 2.114 10.505-2.008 25.511-11.206 24.936-22.119-.741-14.077-11.854-14.818-11.854-14.818s-19.265-1.482-21.485-.741c-2.225.743-18.526 5.188-18.526 5.188z"/><circle cx="651.994" cy="135.982" r="6.322" fill="#A04A58"/><circle cx="730.848" cy="177.176" r="6.322" fill="#A04A58"/><path fill="#110FAB" d="M698.433 302.428s-3.578 48.464 1.607 58.096c5.186 9.631 34.126 38.926 34.126 38.926s8.497 1.112 6.273-4.816c-2.221-5.928-22.27-41.575-22.27-41.575l7.452-56.227-16.301-20.005-10.887 25.601z"/><path fill="#110FAB" d="M733.55 398.555s2.267 9.13 1.532 10.865c-.732 1.732-3.303 10.125 1.167 10.956 4.473.829 7.311-3.366 7.773-7.746.464-4.382-3.466-17.894-3.466-17.894l-7.006 3.819z"/><path fill="#A04A58" d="M667.026 424.946c-2.262-.354-4.828-1.073-7.398-1.547.849 9.676 1.599 16.271 1.599 16.271.586 6.064 2.499 5.548 7.534 3.975 1.603-.502 3.272-7.967 4.835-18.355-2.438-.042-4.763-.061-6.57-.344z"/><path fill="#FBFEFF" d="M658.186 425.035s5.063 5.064 15.49 3.873c1.232-.273 2.463-2.917 2.551-5.239.041-1.073-.131-2.249-.353-3.283-.296-1.37-1.866-2.038-3.075-1.323-2.117 1.254-5.398 2.772-8.408 2.387-4.953-.631-5.434-6.008-5.434-6.008l-.997.024c-1.45 2.126-1.287 4.632-.66 7.127.119.472.271.937.457 1.394l.429 1.048z"/><path fill="#A04A58" d="M740.44 394.635c-.545-1.458-2.171-4.715-4.311-8.793-1.808 2.625-3.846 5.091-4.389 5.521-1.185.936-2.374 1.505-3.574 1.908 3.57 3.721 6 6.181 6 6.181s8.498 1.111 6.274-4.817z"/><path fill="#FBFEFF" d="m723.416 390.242 3.138 4.703s9.194 4.284 11.493-7.315l-2.926-5.957-1.045.209s.524 5.748-3.761 6.688-6.166.418-6.166.418l-.733 1.254z"/><path fill="#110FAB" d="m669.725 451.484.73-9.524c.037-.489.071-1.015-.138-1.459-.597.63-1.54.755-2.408.802a26.333 26.333 0 0 1-6.791-.523c-.151 3.44-2.604 6.159-4.96 8.672-2.354 2.514-5.009 4.875-6.461 7.997-.263.563-.479 1.228-.207 1.784.343.691 1.245.851 2.017.863 3.394.063 6.73-1.021 9.723-2.622 2.993-1.601 5.846-3.868 8.495-5.99z"/><circle cx="681.909" cy="285.556" r="6.323" fill="#A04A58"/><path fill="#FBFEFF" d="M726.141 226.602c-2.964-2.963-46.565-19.28-53.233-19.28s-11.113 8.15-11.113 8.15 3.105 1.602 7.838 4.017l4.126 66.972s7.409 17.041 16.301 18.523c8.892 1.482 33.342-1.482 35.563-8.15.544-1.637 3.483-67.269.518-70.232z"/><circle cx="685.821" cy="193.263" r="17.375" fill="#A04A58"/><path fill="#A04A58" d="m680.073 198.604 5.916 17.874a11.147 11.147 0 0 0 12.462 1.292l1.887-1.016-4.936-19.423-15.329 1.273z"/><ellipse cx="701.714" cy="193.961" fill="#A04A58" rx="3.544" ry="6.733"/><path fill="#471821" d="M685.821 175.887c-7.351 0-13.622 4.574-16.16 11.023 3.081 1.819 7.976 2.436 11.098 2.471 1.372.016 13.795-1.699 13.252-3.874a31.008 31.008 0 0 0 3.076 7.71c.003-2.639 2.073-5.13 4.667-5.615.148-.028.299-.058.452-.085-2.376-6.767-8.805-11.63-16.385-11.63z"/><path fill="#FBFEFF" d="M677.113 208.626c-7.198-4.366-16.585-5.806-21.592-12.576-3.33-4.506-3.928-10.462-3.735-16.063.193-5.602 2.579-19.354 1.678-24.886-1.299 2.258-5.153 3.198-7.521 2.109-2.366-1.089-3.642-4.104-2.771-6.56-1.511 6.917-5.021 22.029-6.53 28.947-1.741 7.969-3.49 16.048-3.126 24.198.168 3.754.874 7.691 3.3 10.562 1.677 1.985 4.019 3.272 6.332 4.451a143.81 143.81 0 0 0 41.406 13.64c.811-8.737.063-19.273-7.441-23.822zM725.875 195.57s.185 10.446 4.162 10.905c5.507.634 6.905-12.89 6.905-12.89s11.968 40.97 11.968 46.034.461 11.508-2.301 12.889c-2.763 1.381-39.59-4.143-39.129-7.365.461-3.222-5.432-28.37 1.933-26.068 7.365 2.302 16.977 11.082 16.729 7.527-.248-3.555-.267-31.032-.267-31.032z"/><ellipse cx="721.04" cy="772.599" fill="#110FAB" opacity=".2" rx="82.73" ry="43.02"/><path fill="#110FAB" d="M721.011 754.999s-2.492 5.964-2.385 9.43c.108 3.469 1.842 4.771 1.842 4.771s6.505 1.734 8.457 1.844c1.949.108 8.346 5.203 13.006 5.528 4.662.323 10.624 1.734 11.274-1.952.65-3.686-22.979-18.318-22.979-18.318l-9.215-1.303z"/><path fill="#0B0B82" d="m747.92 559.965 4.925 5.532s12.889 46.717 12.492 50.675-5.542 4.75-8.709 3.563c-3.167-1.188-11.875-30.085-11.875-30.085l3.167-29.685z"/><path fill="#EEBCC5" d="m722.016 743.746-.964 12.709s-.261 3.017 3.824 3.213c4.085.193 5.35-3.367 5.35-3.367l2.879-18.975-11.089 6.42zM694.38 755.135l-2.389 11.397s.734 4.046 4.412 3.494 4.78-5.516 4.78-5.516l2.206-12.134-9.009 2.759z"/><path fill="#110FAB" d="M692.36 764.694s.366 3.309 3.31 3.126c2.94-.186 5.515-3.31 5.515-3.31l-.736 11.766s-1.654 17.649-6.802 19.487c-5.146 1.84-6.25-7.905-6.25-7.905l4.963-23.164z"/><path fill="#F0C53B" d="M702.154 633.155s.972 18.47 1.943 21.874c.972 3.401-1.943 48.606-1.943 48.606s-10.208 53.469-9.723 56.386c.486 2.915 8.749 1.456 10.694-1.459 1.943-2.917 14.097-47.149 16.04-59.787 1.945-12.639 7.777-41.803 7.777-41.803s.487 35.483.487 38.4c0 2.915-6.319 55.896-6.319 55.896s.239 1.554 5.143 2.282c1.603.236 4.414-.309 5.58-2.218 2.897-4.75 3.858-15.132 3.858-15.132s14.097-60.272 13.125-66.592 1.943-48.606 1.943-48.606l-7.777-2.917-40.828 15.07z"/><path fill="#110FAB" d="M720.665 561.46s16.146-5.203 22.764-3.549c6.619 1.655 8.825 6.067 9.376 8.273.552 2.206-2.206 55.705-2.206 55.705s-28.68 23.716-40.813 17.649c-8.764-4.383-9.473-9.34-9.188-11.755.17-1.463.316-2.928.268-4.401l-1.558-47.271 21.357-14.651z"/><path fill="#0B0B82" d="m747.792 601.646-33.465 6.694-6.982-35.397-.771-1.816-7.267 4.985 1.558 47.271c.049 1.474-.098 2.938-.268 4.401-.237 2.019.237 5.813 5.511 9.562 11.117-5.716 33.48-18.037 42.458-27.204 5.133-5.245-.774-8.496-.774-8.496z"/><path fill="#110FAB" d="M715.3 592.106s9.226-28.992 5.364-30.646c0 0-22.462 7.482-25.22 13.549-2.758 6.067-2.165 11.447-4.646 20.823 0 0-5.792 20.131-4.964 25.37.827 5.24 6.343 7.997 19.304 2.758s45.226-17.925 45.226-17.925l-.275-5.791-38.057 4.137 3.268-12.275z"/><path fill="#F7F7FB" d="M725.407 561.437s-5.909 1.647-6.459 3.022c-.55 1.374 3.848 7.695 8.519 11.13 4.673 3.434 7.695 4.397 7.695 4.397s5.358-6.459 5.223-15.39c-.138-8.932-14.978-3.159-14.978-3.159z"/><circle cx="737.746" cy="544.205" r="16.084" fill="#EEBCC5"/><path fill="#EEBCC5" d="m741.254 548.529-5.477 16.546a10.313 10.313 0 0 1-11.534 1.193 2.544 2.544 0 0 1-1.259-2.863l4.083-16.057 14.187 1.181z"/><path fill="#110FAB" d="M751.333 544.912c.842-.028 1.74-.121 2.404-.643.03-.023.052-.056.079-.079-.006-6.666-4.171-12.895-10.825-15.191-8.398-2.896-17.555 1.564-20.45 9.962a15.542 15.542 0 0 0-.541 2.045c.664.351 1.364.582 2.068.645 1.64.144 7.054-2.052 6.558-4.288l.727 3.281a3.888 3.888 0 0 0 2.359-2.861c4.543 4.679 11.102 7.333 17.621 7.129z"/><path fill="#0B0B82" d="M760.843 625.063c-4.397 0-7.998-3.599-7.998-7.998 0-4.396 3.601-7.997 7.998-7.997 4.399 0 7.997 3.601 7.997 7.997 0 4.4-3.597 7.998-7.997 7.998z"/><circle cx="724.251" cy="540.101" r="4.896" fill="#EEBCC5"/><circle cx="765.876" cy="618.626" r="5.942" fill="#EEBCC5"/><circle cx="754.252" cy="602.318" r="5.942" fill="#EEBCC5"/><path fill="#EEBCC5" d="m763.803 607.636-4.279-6.545a1.669 1.669 0 1 0-2.794 1.828l4.279 6.545a1.67 1.67 0 0 0 2.794-1.828z"/><path fill="#E0E4ED" d="m774.817 604.381-19.391 11.812-5.06 5.94 19.603-11.487z"/><path fill="#110FAB" d="m774.817 604.381.881 1.14-4.596 6.48-20.145 11.311-.591-1.179 19.603-11.487zM848.726 434.234c-41.832 0-75.741 33.908-75.741 75.739v.002c0 41.828 33.909 75.739 75.741 75.739 41.831 0 75.739-33.911 75.739-75.739v-.002c0-41.83-33.908-75.739-75.739-75.739z"/><path fill="#110FAB" d="m810.488 565.359 1.454 1.37-33.99 36.07-1.453-1.37z"/><path fill="#FFF9FF" d="M848.726 439.595c-38.87 0-70.381 31.508-70.381 70.379v.002c0 38.868 31.511 70.379 70.381 70.379 38.871 0 70.379-31.511 70.379-70.379v-.002c0-38.871-31.508-70.379-70.379-70.379z"/><path fill="#110FAB" d="M874.283 558.935h-52.814a3.98 3.98 0 0 1-3.981-3.979v-91.544a3.98 3.98 0 0 1 3.981-3.981h52.814a3.98 3.98 0 0 1 3.979 3.981v91.544a3.98 3.98 0 0 1-3.979 3.979z"/><path fill="#FFF9FF" d="M822.828 464.773h50.093v88.82h-50.093z"/><path fill="#0262CD" d="M822.828 518.259h50.093v35.335h-50.093z"/><path fill="#5BB59B" d="M833.721 478.458c-.075.73.288 1.627-.268 2.105-.334.286-.857.252-1.193.536-.564.48-.191 1.404.278 1.978.469.573 1.045 1.284.754 1.965-.146.347-.487.569-.703.877-.48.683-.249 1.661.255 2.327 1.297 1.717 4.014 1.82 5.838.679.662-.414 1.263-.996 1.48-1.745.218-.75-.054-1.675-.752-2.021-.282-.142-.646-.211-.78-.497-.228-.489.416-.888.817-1.248.758-.683.695-2.063-.121-2.676-.345-.258-.814-.418-.976-.818-.116-.282-.037-.604-.032-.909.039-2.32-4.352-2.942-4.597-.553z"/><path fill="#0553DD" d="M835.906 479.906h.118v9.572h-.118z"/><path fill="#0553DD" d="m835.961 483.688-2.027-1.703.078-.092 1.956 1.643 2.432-1.725.069.096zM835.961 487.752l-2.027-1.704.078-.09 1.956 1.644 2.432-1.728.069.099z"/><path fill="#5BB59B" d="M854.134 475.813c-.097.954.377 2.129-.35 2.754-.435.374-1.122.329-1.56.702-.738.627-.25 1.835.364 2.587.614.75 1.366 1.679.984 2.57-.191.452-.638.741-.92 1.145-.627.894-.325 2.174.334 3.044 1.695 2.247 5.251 2.381 7.638.89.866-.541 1.652-1.304 1.937-2.286.285-.979-.068-2.188-.984-2.644-.368-.183-.845-.273-1.019-.648-.3-.638.543-1.161 1.068-1.633.991-.892.909-2.697-.159-3.499-.453-.338-1.064-.547-1.278-1.07-.15-.371-.047-.789-.041-1.189.051-3.035-5.69-3.849-6.014-.723z"/><path fill="#0553DD" d="M856.993 477.706h.155v12.521h-.155z"/><path fill="#0553DD" d="m857.066 482.653-2.651-2.228.1-.12 2.56 2.15 3.182-2.258.09.127zM857.066 487.968l-2.651-2.228.1-.118 2.56 2.149 3.182-2.257.09.127z"/><path fill="#5BB59B" d="M841.55 470.986c-.127 1.243.491 2.771-.455 3.585-.566.489-1.46.429-2.029.914-.963.816-.327 2.392.475 3.367.799.976 1.777 2.187 1.281 3.348-.252.589-.829.966-1.197 1.489-.817 1.165-.423 2.828.433 3.964 2.21 2.924 6.836 3.101 9.944 1.157 1.127-.705 2.148-1.698 2.521-2.976.37-1.275-.093-2.849-1.282-3.44-.48-.239-1.099-.357-1.327-.845-.39-.832.707-1.511 1.39-2.126 1.29-1.162 1.185-3.512-.205-4.553-.59-.441-1.387-.713-1.663-1.396-.195-.482-.063-1.027-.054-1.549.064-3.946-7.412-5.008-7.832-.939z"/><path fill="#0553DD" d="M845.271 473.453h.204v16.299h-.204z"/><path fill="#0553DD" d="m845.368 479.891-3.453-2.9.13-.155 3.333 2.799 4.141-2.939.119.165zM845.368 486.811l-3.453-2.9.13-.155 3.333 2.799 4.141-2.939.119.166z"/><path fill="#92CDF9" d="M830.004 492.69h34.626v3.43h-34.626zM830.004 499.24h34.626v3.432h-34.626z"/><path fill="#F0C53B" d="M854.179 507.039h-13.724a3.898 3.898 0 1 0 0 7.798h13.724a3.9 3.9 0 0 0 0-7.798z"/><path fill="#FFF9FF" d="M831.289 524.162h32.056v24.587h-32.056z"/><circle cx="847.317" cy="532.746" r="4.979" fill="#92CDF9"/><path fill="#92CDF9" d="M833.962 541.747h26.708v3.432h-26.708z"/><ellipse cx="295.302" cy="624.557" fill="#110FAB" opacity=".2" rx="67.137" ry="34.91"/><ellipse cx="537.977" cy="487.776" fill="#110FAB" opacity=".2" rx="67.137" ry="34.91"/><ellipse cx="185.401" cy="815.845" fill="#110FAB" opacity=".2" rx="98.511" ry="40.415"/><path fill="#DCDEEF" d="m238.843 656.253-90.941 30.543v114.438c0 23.167 30.828 41.944 68.855 41.944s68.854-18.777 68.854-41.944V686.796l-46.768-30.543z"/><ellipse cx="216.757" cy="686.796" fill="#DCDEEF" rx="68.855" ry="41.945"/><path fill="#471821" d="M158.14 708.802c12.127 11.964 33.839 19.939 58.617 19.939s46.489-7.976 58.618-19.939c.838-2.433 1.285-4.951 1.285-7.532 0-20.154-26.819-36.491-59.903-36.491-33.083 0-59.902 16.337-59.902 36.491 0 2.581.447 5.099 1.285 7.532z"/><path fill="#A04A58" d="M259.254 675.555c-10.852-6.655-25.883-10.776-42.497-10.776-5.663 0-11.136.488-16.33 1.383 1.176 1.644 3.306 2.792 5.313 3.471 8.104 2.738 18.048 3.369 22.771 10.501-.649 1.87-2.936 2.499-4.891 2.813-14.159 2.272-28.881 2.394-42.202 7.702-4.421 1.763-9.195 4.955-9.298 9.712-.091 4.169 3.441 7.368 6.328 10.38 2.887 3.013 5.479 7.548 3.328 11.121-.179.298-.404.557-.63.814 10.394 3.838 22.569 6.065 35.612 6.065 3.09 0 6.133-.125 9.115-.366a67.586 67.586 0 0 0-9.382-6.979c-3.318-2.04-7.396-5.173-6.092-8.844 1.003-2.824 4.553-3.604 7.53-3.953 7.155-.836 14.309-1.672 21.463-2.511 2.261-.263 4.638-.57 6.465-1.926 1.829-1.357 2.815-4.134 1.471-5.972-.772-1.056-2.161-1.64-2.638-2.857-.764-1.945 1.341-3.858 3.354-4.423 2.013-.563 4.322-.584 5.866-1.99 3.129-2.853.364-7.952-2.435-11.128a79.627 79.627 0 0 0 7.779-2.237zm-59.091 20.381c-4.903.711-9.971 1.131-14.758-.145-.52-.138-1.125-.398-1.201-.931-.054-.384.206-.739.483-1.011 3.031-2.973 10.524-3.811 14.669-3.731 1.719.032 6.041.638 7.027 2.168 1.659 2.57-4.603 3.414-6.22 3.65z"/><path fill="#FFF9FF" d="M216.757 649.676c34.709 0 64.031 16.998 64.031 37.12 0 20.123-29.322 37.121-64.031 37.121-34.708 0-64.03-16.998-64.03-37.121 0-20.122 29.322-37.12 64.03-37.12m0-4.824c-38.027 0-68.855 18.778-68.855 41.944 0 23.165 30.828 41.945 68.855 41.945 38.028 0 68.854-18.78 68.854-41.945 0-23.166-30.826-41.944-68.854-41.944z"/><path fill="#DCDEEF" d="m275.494 733.041-2.515-1.452v.046l-.039-.021v.043l-.04-.021v.045l-.04-.023v.045l-.039-.023v.045l-.041-.021v.045l-.039-.023v.045l-.04-.023v.045l-.04-.021v.046l-.039-.024v.046l-.04-.024v.046l-.04-.023v.045l-.039-.021v.045l-.04-.023v.045l-.04-.023v.045l-.04-.021v.046l-.039-.024v.046l-.04-.024v.046l-.04-.024v.046l-.04-.021v.045l-.039-.023v.045l-.04-.021v.043l-.04-.021v.045l-.039-.023v.045l-.04-.023v.045l-.039-.021v.046l-.041-.024v.046l-.039-.023v.045l-.04-.023v.045l-.04-.021v.045l-.039-.023v.045l-.04-.023v.045l-.04-.021v.043l-.039-.021v.046l-.04-.024v.046l-.04-.024v.046l-.04-.021v.045l-.039-.023v.045l-.04-.023v.045l-.039-.021v.045l-.041-.023v.045l-.039-.023v.046l-.04-.022v.044l-.04-.021v.045l-.039-.023v.045l-.04-.023v.045l-.04-.021v.045l-.039-.023v.045l-.04-.023v.045l-.04-.021v.046l-.04-.024v.046l-.04-.023v.045l-.039-.023v.045l-.04-.021v.045l-.04-.023v.045l-.039-.023v.045l-.04-.021v.043l-.04-.021v.046l-.039-.024v.046l-.04-.024v.048l-.039-.023v.045l-.04-.023v.045l-.04-.023v.045l-.04-.021v.045l-.039-.023v.045l-.04-.023v.046l-.04-.022v.044l-.039-.021v.045l-.04-.023v.045l-.04-.023v.045l-.04-.021v.045l-.04-.023v.045l-.039-.023v.045l-.04-.023v.048l-.04-.024v.046l-.04-.024v.046l-.039-.024v.046l-.04-.021v.045l-.039-.023v.045l-.04-.023v.045l-.04-.021v.045l-.04-.023v.046l-.04-.024v.046l-.039-.024v.046l-.04-.021v.045l-.04-.023v.045l-.039-.023v.045l-.04-.021v.045l-.04-.023v.045l-.039-.023v.045l-.04-.021v.043l-.04-.021v.046l-.04-.024v.046l-.039-.024v.046l-.04-.021v.045l-.04-.023v.045l-.039-.023v.045l-.04-.021v.043l-.04-.021v.046l-.039-.024v.046l-.04-.024v.046l-.04-.021v.045l-.04-.023v.045l-.039-.023v.045l-.04-.021v.045l-.04-.023v.045l-.04-.023v.045l-.039-.021v.044l-.04-.022v.046l-.04-.023v.045l-.039-.021v.043l-.04-.021v.043l-.04-.021v.045l-.04-.023v.045l-.039-.021v.046l-.04-.024v.046l-.04-.024v.046l-.039-.024v.046l-.04-.021v.045l-.04-.023v.045l-.039-.023v.045l-.04-.021v.045l-.04-.023v.045l-.04-.023v.046l-.039-.024v.046l-.04-.021v.045l-.039-.023v.045l-.041-.023v.045l-.039-.021v.045l-.04-.023v.045l-.04-.023v.045l-.039-.021v.043l-.04-.021v.046l-.04-.024v.046l-.039-.023v.045l-.04-.021v.045l-.04-.023v.045l-.04-.023v.045l-.04-.021v.043l-.039-.021v.046l-.04-.024v.046l-.04-.024v.046l-.039-.021v.045l-.04-.023v.045l-.04-.023v.045l-.039-.021v.045l-.04-.023v.045l-.04-.023v.046l-.04-.024v.046l-.039-.021v.045l-.04-.023v.045l-.039-.023v.045l-.04-.021v.043l-.04-.021v.045l-.04-.023v.045l-.039-.023v.045l-.04-.021v.046l-.04-.024v.046l-.04-.021v.043l-.039-.021v.045l-.04-.023v.045l-.04-.023v.045l-.04-.021v.045l-.039-.023v.046l-.04-.024v.046l-.04-.024v.046l-.039-.021v.045l-.04-.023v.045l-.04-.023v.045l-.04-.021v.045l-.039-.023v.045l-.04-.023v.045l-.04-.021v.043l-.039-.021v.046l-.04-.024v.046l-.04-.024v.046l-.039-.021v.045l-.04-.023v.045l-.04-.023v.045l-.04-.021v.043l-.039-.021v.046l-.04-.024v.046l-.04-.024v.046l-.04-.021v.045l-.039-.023v.045l-.04-.023v.045l-.039-.021v.045l-.04-.023v.045l-.04-.023v.045l-.04-.023v.045l-.039-.021v.046l-.04-.024v.046l-.04-.023v.045l-.04-.021v.045l-.039-.023v.045l-.04-.023v.045l-.04-.021v.043l-.04-.021v.046l-.039-.024v.046l-.04-.024v.046l-.04-.021v.045l-.039-.023v.045l-.04-.023v.045l-.04-.021v.045l-.04-.023v.045l-.039-.023v.046l-.04-.024v.046l-.039-.021v.045l-.04-.023v.045l-.04-.023v.045l-.04-.021v.045l-.039-.023v.045l-.04-.023v.045l-.039-.021v.043l-.041-.021v.046l-.039-.024v.046l-.04-.023v.045l-.04-.021v.043l-.039-.021v.045l-.04-.023v.045l-.04-.021v.043l-.039-.021v.046l-.04-.024v.046l-.04-.024v.046l-.04-.021v.045l-.04-.023v.045l-.039-.023v.045l-.04-.021v.045l-.04-.023v.045l-.039-.023v.045l-.04-.023v.046l-.04-.022v.046l-.039-.023v.045l-.04-.023v.045l-.04-.021v.045l-.04-.023v.045l-.039-.023v.045l-.04-.021v.046l-.04-.024v.046l-.039-.024v.046l-.04-.024v.046l-.04-.021v.045l-.039-.023v.045l-.04-.023v.045l-.04-.021v.043l-.04-.021v.045l-.039-.023v.046l-.04-.024v.046l-.04-.021v.045l-.04-.023v.045l-.039-.023v.045l-.04-.023v.047l-.039-.023v.045l-.04-.023v.045l-.04-.021v.043l-.04-.021v.046l-.039-.024v.046l-.04-.024v.046l-.04-.021v.045l-.04-.023v.045l-.04-.023v.045l-.039-.021v.043l-.04-.021v.046l-.039-.024v.046l-.04-.024v.046l-.04-.021v.043l-.04-.021v.045l-.039-.023v.045l-.04-.021v.043l-.04-.021v.045l-.04-.023v.045l-.039-.023v.045l-.04-.021v.046l-.04-.024v.046l-.039-.023v.045l-.04-.021v.043l-.04-.021v.045l-.039-.023v.045l-.04-.021v.046l-.04-.024v.046l-.04-.024v.046l-.039-.024v.046l-.04-.021v.045l-.04-.023v.045l-.039-.023v.045l-.04-.021v.043l-.04-.021v.045l-.04-.023v.045l-.039-.023v.046l-.04-.022v.044l-.04-.021v.045l-.04-.023v.045l-.039-.021v.045l-.04-.023v.045l-.04-.023v.045l-.039-.023v.045l-.04-.021v.046l-.04-.024v.046l-.039-.023v.045l-.04-.021v.045l-.04-.023v.045l-.04-.023v11.641c11.676 7.861 18.819 21.144 18.819 35.33 0 4.503-1.546 8.687-4.293 11.994a18.44 18.44 0 0 1-2.622.193v.021l-.039.003v.019c-.014 0-.027.003-.04.003v.021h-.04v.021l-.039.002v.02l-.041.002v.021h-.039v.021l-.04.002v.02l-.04.002v.021h-.039v.022h-.04v.021l-.04.002v.021h-.039v.021h-.04v.021l-.04.002v.02l-.04.002v.021h-.039v.021l-.04.003v.019c-.013 0-.026.003-.04.003v.019c-.013.003-.026.003-.04.003v.021h-.039v.021l-.04.002v.02l-.04.002v.021h-.039v.021h-.04v.021l-.039.003V798h-.041v.021h-.039v.021l-.04.002v.02l-.04.002v.021h-.039v.021l-.04.002v.02l-.04.002v.021h-.039v.021h-.04v.021c-.014 0-.026.003-.04.003v.02l-.04.002v.021h-.039v.021l-.04.002v.02l-.039.002v.021h-.041v.021h-.039v.021c-.013 0-.026.003-.04.003v.019c-.013 0-.026.003-.04.003v.021h-.039v.021l-.04.002v.02l-.04.002v.021h-.039v.021h-.04v.021l-.04.002v.021h-.04v.021h-.04v.022l-.039.002v.02l-.04.002v.021h-.04v.021l-.039.002v.02l-.04.002v.021h-.04v.021l-.039.003v.019l-.04.003v.02l-.039.002v.021h-.04v.021l-.04.002v.02l-.04.002v.021h-.039v.021l-.04.002v.02l-.04.002v.02l-.039.002v.022h-.04v.021l-.04.002v.02l-.04.002v.021h-.04v.021l-.039.002v.02l-.04.002v.021h-.04v.021h-.04v.022l-.039.002v.02l-.04.002v.021h-.039v.021l-.04.002v.02l-.04.002v.021h-.04v.021l-.04.002v.02l-.039.003v.019l-.04.003v.021h-.04v.021l-.039.002v.02l-.04.002v.021h-.04v.021h-.039v.021l-.04.002v.021h-.04v.022h-.04v.021l-.039.002v.02l-.04.002v.021h-.04v.021h-.039v.021l-.04.002v.021h-.04v.021l-.039.003v.019c-.014 0-.027.003-.04.003v.019c-.014 0-.027.003-.04.003v.021h-.04v.021l-.039.002v.02l-.04.002v.021h-.04v.021l-.04.002v.02l-.039.002v.02c-.013 0-.026.003-.04.003v.021h-.04v.021l-.039.002v.02l-.04.002v.021h-.04v.021l-.04.002v.02l-.039.002v.02c-.013.002-.027.002-.04.002v.021h-.04v.021l-.039.003v.02l-.04.002v.021h-.04v.021l-.039.002v.02l-.04.002v.021h-.04v.021l-.04.002v.02l-.039.003v.019c-.014 0-.027.003-.04.003v.021h-.039v.021l-.041.002v.02l-.039.002v.021h-.04v.021l-.04.002v.02l-.039.002v.021h-.04v.021h-.04v.022l-.039.002v.02l-.04.002v.021h-.04v.021l-.04.002v.02l-.04.002v.02l-.039.002v.021h-.04v.021c-.013 0-.026.003-.04.003v.021h-.039v.021h-.04v.021l-.04.002v.02l-.039.002v.02l-.04.002v.021h-.04v.021l-.04.002v.02l-.039.002v.022h-.04v.021l-.039.002v.02l-.04.002v.021h-.04v.021h-.04v.021l-.039.002v.02c-.014.002-.027.002-.04.002v.021h-.04v.022l-.04.002v.02l-.039.002v.021h-.04v.021l-.04.002v.02l-.04.002v.021h-.039v.021h-.04v.021l-.04.002v.02l-.039.003v.021h-.04v.021l-.04.002v.02l-.04.002v.021h-.039v.021l-.04.002v.02l-.04.002v.02l-.039.002v.022h-.04v.021l-.04.002v.02l-.039.002v.021h-.04v.021l-.04.002v.02l-.04.002v.021h-.039v.021h-.04v.021l-.04.003v.019c-.013 0-.026.003-.04.003v.021h-.039v.021l-.04.002v.02l-.039.002v.021h-.04v.021l-.04.002v.02l-.04.002v.022h-.039v.021h-.04v.021l-.04.002v.02l-.04.002v.02l-.039.002v.021l-.04.002v.02l-.04.002v.02c-.013.002-.026.002-.04.002v.021h-.039v.021c-.013 0-.026.003-.04.003v.019c-.013 0-.026.003-.04.003v.021h-.039v.021h-.04v.021l-.04.002v.021h-.04v.021h-.039v.021l-.04.003v.019l-.039.003v.021h-.04v.021l-.04.002v.02l-.04.002v.021h-.039v.021h-.04v.021l-.039.002v.02l-.041.002v.021l-.039.003v.02l-.04.002v.02l-.04.002v.021h-.039v.021l-.04.002v.02l-.04.002v.02l-.039.002v.021h-.04v.021c-.014 0-.027.003-.04.003v.019c-.013 0-.026.003-.04.003v.021h-.04v.021h-.039v.021l-.04.002v.021h-.04v.021l-.039.002v.02l-.04.002v.02l-.04.002v.022h-.039v.021h-.04v.021l-.04.002v.021h-.04v.021l-.039.002v.02l-.04.002v.021h-.04v.021h-.039v.021c-.014 0-.027.003-.04.003v.02l-.04.002v.021h-.039v.021l-.04.002v.02l-.04.002v.021h-.04v.021h-.039v.021l-.04.002v.02l-.04.003v.021h-.04v.021l-.039.002v.02l-.04.002v.021h-.039V803h-.04v.021l-.04.002v.02l-.04.002v.021h-.039v.022l-.04.002v.02l-.04.002v.021h-.04v.021l-.04.002v.02l-.039.002v.02l-.04.002v.021h-.039v.021c-.014 0-.027.003-.04.003v.019l-.04.003v.021h-.04v.021l-.039.002v.02l-.04.002v.021h-.04v.021h-.04v.021l-.039.002v.02l-.04.003v.021h-.04v.021l-.039.002v.02l-.04.002v.021h-.04v.021l-.039.002v.02l-.04.002v.02l-.04.002v.021h-.04v.021c-.013 0-.025.003-.039.003v.019c-.014 0-.027.003-.04.003v.021h-.04v.021l-.039.002v.02l-.04.002v.021h-.04v.021h-.04v.021l-.039.003v.019l-.04.003v.021h-.04v.021l-.04.002v.02l-.039.002v.021h-.04v.021h-.04v.021l-.039.002v.021h-.04v.021h-.04v.021l-.039.003v.02l-.04.002v.021h-.04v.021l-.04.002v9.992c4.947-.002 9.896-1.306 14.404-3.912l.012-.007a.26.26 0 0 1 .028-.015l.011-.007a.2.2 0 0 1 .029-.015.054.054 0 0 1 .012-.009c.008-.004.018-.009.027-.016l.012-.006c.009-.007.018-.009.028-.016l.012-.006c.008-.007.018-.011.028-.016.003-.002.006-.006.011-.008.01-.005.02-.009.029-.016l.011-.007a.108.108 0 0 0 .028-.015l.011-.007a.27.27 0 0 1 .029-.015c.004-.002.007-.007.012-.009l.027-.013.012-.009a.125.125 0 0 0 .028-.015.047.047 0 0 1 .012-.007c.01-.007.019-.011.028-.015l.011-.007c.01-.007.02-.011.029-.015.004-.003.007-.007.012-.009.009-.005.019-.009.027-.016l.011-.006c.01-.005.02-.009.029-.016l.012-.006c.01-.007.019-.011.028-.016l.011-.007.029-.017a.127.127 0 0 1 .012-.007.252.252 0 0 0 .027-.015l.012-.007c.009-.004.018-.011.028-.015l.012-.009.028-.013.011-.009c.009-.005.02-.009.028-.016l.013-.006c.009-.007.018-.009.027-.016l.011-.006c.01-.007.02-.011.029-.016l.012-.009c.008-.004.018-.008.028-.015.003 0 .008-.004.011-.007.009-.004.02-.008.028-.015l.012-.007.028-.015.011-.007a.27.27 0 0 1 .029-.015c.003-.002.007-.007.012-.009a.143.143 0 0 0 .027-.015.075.075 0 0 1 .012-.007c.008-.005.019-.009.028-.015a.047.047 0 0 1 .012-.007c.009-.007.019-.011.028-.016.003-.002.007-.006.011-.006.01-.007.019-.011.029-.016.003-.004.008-.006.012-.009.008-.004.018-.008.027-.015a.2.2 0 0 1 .04-.022.031.031 0 0 0 .012-.009l.028-.013c.004-.004.007-.007.012-.009a.143.143 0 0 0 .027-.015l.011-.007a.16.16 0 0 0 .029-.015.047.047 0 0 1 .012-.007c.01-.007.019-.011.028-.015a.041.041 0 0 1 .011-.007c.009-.007.019-.011.029-.018l.011-.006c.01-.007.019-.009.028-.016l.012-.006c.009-.007.018-.011.028-.016a.031.031 0 0 0 .012-.009l.028-.013c.003-.004.006-.004.01-.009a.132.132 0 0 0 .029-.015.127.127 0 0 0 .012-.007.191.191 0 0 1 .028-.015l.011-.007a.27.27 0 0 1 .029-.015l.011-.009c.009-.005.019-.009.028-.016l.012-.006c.009-.007.02-.011.028-.016l.012-.006c.01-.007.018-.011.028-.016l.011-.006c.01-.007.02-.011.029-.016l.012-.009c.009-.004.019-.008.027-.015l.012-.007a.15.15 0 0 1 .028-.015c.004-.002.007-.007.012-.007a.191.191 0 0 1 .028-.015l.011-.009a.27.27 0 0 0 .029-.015c.003-.003.008-.005.012-.007l.027-.015a.047.047 0 0 1 .012-.007c.009-.007.018-.011.028-.016l.012-.008c.009-.005.019-.009.028-.016l.011-.006c.01-.005.02-.009.028-.016l.012-.006.028-.016.012-.006c.009-.007.019-.012.028-.018.003 0 .007-.005.012-.007a.41.41 0 0 0 .028-.015l.011-.007.028-.015a.047.047 0 0 0 .012-.009l.028-.013.011-.009c.01-.005.02-.009.029-.016a.067.067 0 0 1 .012-.006c.009-.005.019-.009.027-.016l.012-.006.028-.016.012-.009a.108.108 0 0 0 .028-.015l.011-.007c.009-.004.019-.008.028-.015l.013-.007.027-.015a.047.047 0 0 0 .012-.009l.028-.013c.003-.002.006-.007.011-.009a.16.16 0 0 0 .029-.015.047.047 0 0 1 .012-.007c.009-.007.019-.009.027-.016l.012-.006c.009-.007.019-.011.028-.016.004-.002.007-.006.012-.008.01-.005.019-.009.028-.016l.011-.006c.009-.005.019-.009.029-.016l.011-.006a.164.164 0 0 1 .028-.016l.011-.007a.16.16 0 0 1 .029-.015.047.047 0 0 1 .012-.009.191.191 0 0 0 .028-.015l.011-.007a.15.15 0 0 0 .028-.015l.012-.007c.01-.007.02-.011.028-.015.003-.003.007-.007.011-.007.01-.007.02-.011.029-.018l.012-.006c.008-.005.018-.009.028-.016l.011-.006c.009-.007.02-.011.028-.016a.031.031 0 0 0 .012-.009l.028-.013c.003-.004.008-.007.011-.009.01-.004.02-.008.029-.015l.012-.007a.182.182 0 0 1 .027-.015l.012-.007a.191.191 0 0 1 .028-.015c.004-.002.007-.007.012-.009a.112.112 0 0 0 .028-.016l.011-.006c.009-.005.019-.009.028-.016l.013-.006c.009-.007.019-.011.027-.016l.011-.006c.01-.007.02-.011.029-.018l.012-.007c.009-.004.019-.008.028-.015l.011-.007c.01-.006.02-.008.028-.015l.012-.007.028-.017c.004 0 .007-.005.012-.007a.191.191 0 0 0 .028-.015c.003-.003.008-.005.012-.007.009-.007.018-.009.028-.015a.03.03 0 0 1 .011-.007c.01-.007.019-.011.028-.015l.012-.009.028-.014.011-.008c.01-.005.02-.009.029-.016l.011-.006c.01-.007.019-.011.028-.016.004-.002.009-.007.012-.007.009-.006.019-.01.028-.015.004-.002.007-.007.012-.009a.15.15 0 0 0 .028-.015l.011-.007c.01-.004.02-.011.028-.015a.075.075 0 0 1 .012-.007l.028-.015c.004-.005.009-.007.012-.009a.2.2 0 0 0 .028-.016l.011-.006c.01-.005.02-.009.029-.016l.012-.006c.009-.007.018-.011.027-.016l.012-.006c.009-.007.019-.011.028-.016a.054.054 0 0 1 .012-.009.155.155 0 0 0 .028-.015l.011-.007.028-.015a.044.044 0 0 0 .013-.009l.027-.013a.047.047 0 0 0 .012-.009.41.41 0 0 0 .04-.022c.009-.005.019-.009.028-.015a.041.041 0 0 1 .011-.007c.01-.007.019-.011.028-.016l.012-.008c.01-.005.02-.009.028-.016a.067.067 0 0 1 .012-.006c.009-.005.019-.009.028-.016l.012-.007a.125.125 0 0 1 .028-.015l.011-.007a.15.15 0 0 1 .028-.015l.012-.009a.191.191 0 0 0 .039-.022c.01-.006.02-.009.029-.015a.041.041 0 0 1 .011-.007c.01-.007.019-.011.028-.015l.012-.009c.009-.005.019-.009.028-.016l.012-.006a.2.2 0 0 0 .028-.016l.011-.006c.01-.007.02-.011.028-.016l.013-.009c.009-.004.019-.008.027-.013l.012-.009c.01-.004.018-.009.028-.015l.011-.007a.27.27 0 0 1 .029-.015l.011-.007a.191.191 0 0 1 .028-.015l.012-.009c.01-.005.02-.009.028-.015a.067.067 0 0 1 .011-.007c.01-.005.019-.009.029-.016l.012-.006c.008-.007.018-.011.028-.016l.011-.006.028-.018.012-.007c.008-.004.018-.008.028-.015a.067.067 0 0 0 .011-.007c.01-.004.02-.011.029-.015l.012-.009.027-.013.011-.007.029-.017a.047.047 0 0 1 .012-.007c.009-.007.018-.009.028-.015a.075.075 0 0 1 .012-.007c.009-.007.019-.011.027-.016l.011-.006c.01-.007.021-.011.029-.018l.012-.006c.009-.007.018-.009.028-.016l.011-.006c.01-.007.02-.011.029-.016a.067.067 0 0 1 .012-.006.107.107 0 0 1 .027-.016c.004-.002.007-.007.012-.009a.191.191 0 0 0 .028-.015l.012-.007c.01-.006.018-.011.028-.015l.011-.007c.01-.007.02-.011.028-.015.004-.002.008-.007.013-.009.009-.005.019-.009.027-.016l.012-.006c.008-.005.018-.009.028-.016a.067.067 0 0 1 .012-.006c.009-.007.019-.011.028-.016l.011-.006c.008-.007.019-.011.028-.016.004-.004.009-.006.013-.009.009-.004.019-.008.027-.015a.067.067 0 0 0 .011-.007c.009-.004.019-.008.029-.015a.127.127 0 0 1 .012-.007.191.191 0 0 1 .028-.015c.003-.005.006-.005.011-.009.01-.004.018-.009.028-.015a.075.075 0 0 1 .012-.007c.008-.004.019-.009.028-.016a.067.067 0 0 1 .012-.006c.009-.007.019-.011.028-.016l.012-.008c.008-.005.018-.009.027-.016.004 0 .007-.004.012-.006.009-.005.019-.009.028-.016l.012-.006a.133.133 0 0 1 .028-.016l.011-.007.028-.015c.004-.002.007-.007.012-.009a.125.125 0 0 0 .028-.015l.011-.007a.132.132 0 0 0 .029-.015.047.047 0 0 1 .012-.007c.009-.007.019-.011.028-.015.003-.003.006-.007.011-.007.009-.007.018-.011.028-.018l.012-.006c.01-.005.02-.009.028-.016l.011-.006c.009-.007.019-.011.029-.016l.011-.006c.01-.007.02-.011.028-.016.004-.002.007-.007.012-.009a.094.094 0 0 0 .028-.015l.012-.007c.009-.004.018-.011.028-.015l.011-.007.028-.015.013-.009c.008-.004.018-.009.027-.016l.012-.006.028-.016.011-.006c.009-.007.019-.011.029-.016l.012-.008c.009-.005.019-.009.027-.016l.012-.006c.008-.005.02-.009.028-.016l.012-.007.028-.015.011-.007.028-.015.013-.009a.252.252 0 0 0 .039-.022.191.191 0 0 0 .028-.015l.012-.009c.008-.005.018-.009.028-.013.003-.003.008-.005.011-.009l.028-.014a.032.032 0 0 1 .012-.008c.01-.005.02-.009.028-.016l.012-.006.028-.016c.004-.002.007-.007.012-.009a.24.24 0 0 0 .028-.013l.011-.009a.15.15 0 0 0 .028-.015l.012-.007.028-.015.011-.007a.16.16 0 0 1 .029-.015l.012-.009c.009-.005.019-.009.028-.016l.011-.006a.2.2 0 0 0 .028-.016l.012-.006c.01-.007.019-.011.028-.016l.011-.006c.01-.007.02-.011.029-.016.003-.004.008-.006.012-.009.008-.004.018-.008.027-.015l.012-.007.028-.015.011-.007a.27.27 0 0 1 .029-.015c.003-.002.008-.005.011-.009a.125.125 0 0 0 .028-.015.075.075 0 0 1 .012-.007c.01-.007.02-.011.028-.015l.011-.007c.01-.007.02-.011.029-.016.004-.002.007-.006.012-.008.01-.005.019-.009.027-.016l.012-.006c.01-.005.02-.009.028-.016l.012-.007c.009-.006.019-.01.028-.015l.011-.007a.16.16 0 0 1 .029-.015.027.027 0 0 1 .012-.009.143.143 0 0 0 .027-.015.075.075 0 0 1 .012-.007c.008-.004.019-.009.028-.015a.075.075 0 0 1 .012-.007c.01-.007.019-.011.028-.015.004-.003.007-.007.012-.009.01-.005.019-.009.028-.016.003 0 .007-.004.011-.006.009-.005.019-.009.028-.016l.012-.006c.01-.007.02-.011.028-.016a.031.031 0 0 0 .012-.009l.028-.013.012-.009a.143.143 0 0 0 .027-.015c.004-.002.009-.004.012-.007a.41.41 0 0 0 .028-.015l.012-.007.028-.015c.003-.002.006-.007.011-.009.01-.005.019-.009.028-.015l.013-.007c.008-.005.018-.009.027-.016l.012-.006c.01-.007.019-.011.028-.016l.012-.006c.008-.007.018-.011.028-.016l.011-.009a.094.094 0 0 0 .028-.015c.004-.002.009-.004.012-.007a.26.26 0 0 1 .028-.015l.011-.007a.27.27 0 0 1 .029-.015c.004-.002.007-.007.012-.009a.15.15 0 0 0 .028-.015.041.041 0 0 1 .011-.007c.01-.004.02-.011.028-.015a.047.047 0 0 1 .012-.007.128.128 0 0 1 .028-.015c.004-.003.008-.005.011-.009l.029-.014a.025.025 0 0 1 .012-.008c.009-.005.019-.009.027-.016l.011-.006.029-.016a.041.041 0 0 0 .012-.009l.028-.013c.003-.002.007-.004.011-.009a.15.15 0 0 0 .028-.015.127.127 0 0 0 .012-.007l.028-.015.012-.007c.009-.007.019-.011.028-.015l.012-.009c.008-.005.018-.009.028-.013a.02.02 0 0 1 .011-.009c.01-.005.02-.009.028-.016l.012-.006c.009-.007.019-.011.028-.016l.011-.006c.01-.007.02-.011.029-.016.003-.004.007-.006.012-.009a.122.122 0 0 0 .027-.015l.012-.007.028-.015.012-.007c.009-.006.02-.011.028-.015l.012-.009a.41.41 0 0 0 .04-.022c.009-.004.019-.011.027-.016l.012-.006c.008-.007.019-.011.028-.016.004-.002.007-.006.012-.008.009-.005.019-.009.028-.016l.012-.006c.009-.005.018-.009.028-.016l.011-.006.028-.016a.041.041 0 0 0 .012-.009l.028-.013a.047.047 0 0 1 .012-.009.41.41 0 0 0 .028-.015l.012-.007.027-.015.012-.007a.108.108 0 0 1 .028-.015c.004-.003.007-.007.013-.009.009-.005.018-.009.027-.016l.011-.006a.2.2 0 0 0 .028-.016l.013-.006c.008-.007.018-.011.027-.016l.012-.006c.01-.007.018-.011.028-.016l.012-.009c.008-.004.018-.008.028-.015l.011-.007c.01-.006.02-.009.028-.015a.127.127 0 0 0 .012-.007.191.191 0 0 1 .028-.015l.011-.007c.01-.006.02-.011.029-.018l.012-.006a.107.107 0 0 0 .027-.016l.012-.006c.01-.007.02-.011.028-.016l.012-.006c.009-.007.018-.011.028-.016l.012-.008c.008-.005.018-.009.027-.016l.013-.007.027-.015.011-.007.029-.015c.004-.002.007-.007.012-.009a.191.191 0 0 0 .039-.022.2.2 0 0 0 .04-.022c.01-.007.02-.011.028-.015a.047.047 0 0 1 .012-.007c.008-.007.018-.011.028-.015a.031.031 0 0 1 .012-.009c.009-.005.019-.009.028-.016l.011-.006c.01-.005.02-.009.028-.016.004-.002.009-.004.012-.009l.028-.013.011-.009a.16.16 0 0 0 .029-.015l.012-.007.027-.015a.127.127 0 0 0 .012-.007c.009-.006.02-.011.028-.015.004-.003.007-.007.012-.009.009-.005.02-.009.028-.016l.011-.006c.01-.005.02-.009.029-.016a.067.067 0 0 1 .012-.006c.009-.007.019-.011.027-.016l.012-.008.028-.014a.03.03 0 0 0 .011-.009c.01-.004.02-.008.029-.015l.012-.007a.125.125 0 0 1 .028-.015l.011-.007a.26.26 0 0 1 .028-.015c.004-.002.007-.007.012-.009l.028-.013c.003-.005.008-.007.012-.009a.191.191 0 0 0 .028-.015.035.035 0 0 1 .012-.007c.009-.007.019-.011.027-.016l.011-.006c.01-.007.02-.011.029-.018.004 0 .007-.004.012-.006.01-.005.019-.009.028-.016l.011-.007c.009-.006.019-.01.028-.015l.012-.007a.26.26 0 0 1 .028-.015l.012-.007.028-.017.012-.007c.01-.004.019-.011.028-.015a.03.03 0 0 1 .011-.007c.01-.007.02-.011.028-.015l.012-.009c.01-.005.02-.009.028-.016.004 0 .007-.004.011-.006.01-.005.02-.009.029-.016a.067.067 0 0 1 .012-.006c.008-.007.018-.011.027-.016l.012-.006c.009-.007.02-.011.028-.016l.012-.009c.01-.004.018-.009.028-.015l.011-.007a.16.16 0 0 0 .029-.015l.012-.007.027-.015c.004-.002.008-.007.012-.007l.028-.017a.047.047 0 0 1 .012-.007c.009-.005.019-.009.028-.016l.011-.006c.01-.007.02-.011.028-.016.004-.002.009-.004.012-.008l.028-.014.011-.009c.009-.004.019-.008.029-.015l.012-.007c.009-.004.019-.008.027-.015l.012-.007a.26.26 0 0 1 .028-.015l.012-.009a.15.15 0 0 0 .028-.015.047.047 0 0 1 .012-.007.191.191 0 0 0 .028-.015c.003-.003.008-.005.012-.007.008-.007.018-.011.027-.015a.047.047 0 0 1 .012-.007c.009-.007.02-.011.028-.016.004-.004.009-.006.012-.008a.2.2 0 0 0 .028-.016c9.012-5.209 14.393-14.533 14.393-24.943.05-18.518-10.021-35.961-26.232-45.32z"/><path fill="#110FAB" d="m263.59 739.716-2.515-1.452v11.641c11.676 7.861 18.819 21.144 18.819 35.33 0 6.806-3.516 12.9-9.407 16.307-2.946 1.702-6.178 2.554-9.412 2.558v9.992c4.947-.002 9.896-1.306 14.404-3.912 9.013-5.21 14.393-14.534 14.393-24.944 0-18.719-10.071-36.162-26.282-45.52z" opacity=".2"/><path fill="#E2A1D0" d="m522.047 501.347 20.543 13.957s8.658 8.889 11.716 11.657c3.055 2.769 5.093-.254 3.225-3.822-1.229-2.348-5.55-9.899-8.356-14.785-1.53-2.661-4.296-4.438-7.099-4.572l-2.881-.136-4.46-2.885s-1.99-1.354-2.499-1.447c-.511-.095-4.076-.918-4.585-.843-.508.077-5.604 2.876-5.604 2.876z"/><path fill="#110FAB" d="M539.824 510.912c.877 1.972 2.438 3.629 3.96 5.225l4.655 4.885c1.452 1.525 2.904 3.051 4.356 4.573.752.789 1.525 1.595 2.463 2.093.939.495 2.09.618 2.777.025.599-.518.715-1.465.515-2.344-.2-.882-.672-1.718-1.138-2.534l-7.999-14.063c-.586-1.03-1.189-2.082-2.052-2.911-1.415-1.359-5.493-3.104-7.056-2.199-1.849 1.073-1.328 5.353-.481 7.25z"/><path fill="#E2A1D0" d="m568.848 476.454 8.652 5.26 11.891 4.927s8.658 7.302 11.716 9.508c3.055 2.206 5.093-1.189 3.225-4.415-1.229-2.122-5.55-8.882-8.356-13.252a7.263 7.263 0 0 0-7.1-3.268l-2.88.392-4.46-2.065s-1.99-.989-2.499-.989c-.511 0-4.076-.17-4.585 0-.508.167-5.604 3.902-5.604 3.902z"/><path fill="#3636BF" d="m522.153 421.678 12.55-9.654 6.756 42.337 42.753 20.413s-4.617-2.383-6.711 1.469c-2.615 4.805 0 5.471 0 5.471l-48.112-15.036a6.274 6.274 0 0 1-4.221-4.485l-9.129-36.975 6.114-3.54z"/><path fill="#110FAB" d="M496.41 411.703c-.601 13.006-3.885 52.471-3.158 56.345.98 5.225 23.13 30.078 35.701 38.813.08-.119.17-.257.267-.405 1.987-3.137 5.891-4.723 9.322-3.307l.121.051c-7.041-15.669-13.743-23.127-25.843-35.323 1.515-5.994 1.002-29.514 2.517-35.51 6.188-.939 20.247-9.749 20.247-9.749s1.564-8.519-.956-14.247l-20.747-3.803c-6.29-1.153-13.408 2.197-17.471 7.135z"/><circle cx="512.326" cy="333.692" r="15.845" fill="#E2A1D0"/><path fill="#FBFEFF" d="M537.13 369.81s6.807-17.839-.45-22.852c-5.491-.599-12.227 2.579-12.227 2.579s-14.262 9.183-23.77 13.936c-4.789 2.395-1.429 13.898-1.271 25.397.153 11.326-2.932 22.667-2.932 22.667s14.769 6.338 22.69 5.811c7.924-.528 17.432-4.225 16.374-7.924-1.056-3.697-5.811-17.43-3.697-22.182 2.114-4.753 5.283-17.432 5.283-17.432z"/><path fill="#D7DAFF" d="M500.686 363.473c2.543-1.272 5.425-2.862 8.284-4.507 2.37.93 4.248 1.763 4.248 1.763l1.593 15.929s-.875 25.331-2.622 39.983c-7.472-1.571-15.708-5.104-15.708-5.104s3.266-12.25 3.101-23.512c-.169-11.55-3.71-22.146 1.104-24.552z"/><circle cx="460.646" cy="369.477" r="6.792" fill="#E2A1D0"/><path fill="#FBFEFF" d="m517.539 354.189-16.854 9.283s-4.753 1.693-9.505 13.259c-4.755 11.566-11.621 22.659-14.791 23.715-3.169 1.056-12.726-23.809-14.838-25.394-2.113-1.584-5.76-5.134-5.232 1.679.528 6.812 4.754 37.447 11.62 40.088 6.867 2.641 51.977-33.052 52.505-42.559.526-9.507-2.905-20.071-2.905-20.071z"/><path fill="#E2A1D0" d="M461.814 373.732c2.112 1.584 11.405 27.77 14.574 26.714.177-.061.369-.16.569-.28.058-.034.116-.075.175-.116.159-.104.322-.227.491-.366.056-.047.111-.088.172-.138a11.998 11.998 0 0 0 .897-.877 22.553 22.553 0 0 0 1.337-1.566c.177-.224.357-.461.538-.703.151-.207.306-.411.461-.629.16-.222.323-.454.482-.687l.315-.458a68.664 68.664 0 0 0 2.021-3.182 100.18 100.18 0 0 0 2.935-5.26c0-.002 0-.004.002-.007 2.251 3.295 6.513 8.936 11.343 12.65-12.634 10.32-26.607 19.368-30.187 17.992-6.866-2.641-11.092-33.276-11.62-40.088-.529-6.812 3.383-4.584 5.495-2.999zM522.47 337.712l2.372 17.004a10.166 10.166 0 0 1-9.67 6.083l-1.954-.07-3.798-17.876 13.05-5.141z"/><path fill="#110FAB" d="M501.891 338.308c-.078-2.349 3.156-4.008 5.02-2.579 1.327 1.018 1.62 2.973 1.144 4.576-.476 1.603-1.566 2.938-2.633 4.228a73.411 73.411 0 0 0 16.122 8.138l7.09-10.274c1.069-1.549 2.155-3.136 2.648-4.951 1.118-4.128-.543-11.413-3.292-14.689-3.872-4.612-9.135-6.646-15.135-7.129-4.644-.374-10.271 2.833-13.276 6.45-3.964 4.773.459 11.105 2.312 16.23z"/><path fill="#110FAB" d="M537.32 346.055c.125.475.25.97.155 1.452-.101.506-.429.933-.754 1.333-1.629 1.997-3.458 3.835-5.482 5.426-1.677 1.315-3.493 2.465-5.455 3.294-6.516 2.756-13.929 1.779-20.927.755.487-4.59.646-9.215.479-13.828 2.941-1.082 5.087-4.048 5.192-7.181.073-2.172-.743-4.356-.313-6.487 1.234-6.106 9.82-7.389 14.872-6.634 4.979.742 6.545 5.065 8.168 9.293a123.343 123.343 0 0 1 4.065 12.577z"/><circle cx="505.328" cy="342.216" r="1.69" fill="#E0E4FF"/><path fill="#110FAB" d="M586.625 482.759c.879 1.81 2.438 3.178 3.96 4.496l4.655 4.031 4.356 3.774c.752.648 1.525 1.313 2.463 1.637.939.326 2.09.235 2.777-.482.599-.627.715-1.597.515-2.438-.2-.845-.672-1.593-1.138-2.325l-7.999-12.595c-.586-.922-1.189-1.863-2.052-2.533-1.415-1.101-5.493-2.097-7.056-.905-1.85 1.413-1.328 5.597-.481 7.34z"/><circle cx="260.236" cy="360.369" r="5.22" fill="#E9A4D7"/><path fill="#E9A4D7" d="M262.848 362.665s14.334 29.687 15.657 34.931c1.018 4.04-6.464 9.753-9.426 6.621-2.961-3.132-10.757-40.258-10.757-40.258l4.526-1.294z"/><path fill="#CE9006" d="M290.713 414.635c-5.873-7.11-9.508-15.745-13.739-23.939-.519-1.007-1.17-2.108-2.268-2.388-.857-.219-1.747.136-2.562.483-3.26 1.39-7.065 3.576-6.99 7.117.023 1.105.452 2.157.879 3.176a359.201 359.201 0 0 0 22.74 45.099c1.353 2.271 3.104 4.771 5.734 5.023 2.795.266 5.075-2.16 6.583-4.528 2.535-3.975 7.031-11.929 4.677-16.798-2.448-5.068-11.25-8.645-15.054-13.245z"/><circle cx="224.099" cy="378.667" r="5.22" fill="#E9A4D7"/><path fill="#3636BF" d="M302.551 488.293s5.893 45.254 6.39 67.124c.497 21.869 9.123 22.432 15.248 36.564 6.125 14.134 10.101 28.549 10.101 28.549l-3.281 1.851s-29.026-35.649-32.506-39.129-14.911-63.125-14.911-63.125l18.959-31.834z"/><path fill="#110FAB" d="M331.008 622.381s1.353 4.057 2.48 7.211c1.127 3.156 0 10.143 1.803 13.073 1.803 2.93 6.762.452 6.537-2.027s-1.578-11.946-2.255-13.523c-.675-1.579-5.284-6.584-5.284-6.584l-3.281 1.85z"/><circle cx="279.853" cy="411.917" r="15.846" fill="#E9A4D7"/><path fill="#110FAB" d="M273.184 625.464s-.3 6.502-.375 7.082c-.075.581-2.83 1.978-6.862 1.167-4.033-.812-15.348-4.576-17.332-6.523-1.982-1.947 4.283-1.529 8.115-1.176 3.832.351 11.261-.55 11.261-.55h5.193z"/><path fill="#110FAB" d="m304.519 504.611-17.446 14.348s-10.229 35.106-11.276 43.49c-1.047 8.383-2.638 53.559-2.612 63.015.016 5.857-4.199 3.008-5.771 1.958-1.572-1.047-8.384-58.111-8.384-73.069s6.605-67.106 6.605-67.106l36.917.145 1.967 17.219z"/><path fill="#F0C53B" d="M299.375 465.467c2.112-4.753 5.282-17.432 5.282-17.432 3.564-10.709 2.458-16.649.866-19.777-5.621-2.81-15.247 1.754-15.247 1.754s-13.858 4.929-22.064 11.688c-2.89 2.379-.994 14.734-.378 27.667.409 8.611-3.827 20.396-3.827 20.396s14.769 6.338 22.691 5.811c7.923-.528 17.431-4.225 16.374-7.922-1.056-3.698-5.809-17.432-3.697-22.185z"/><path fill="#E9A4D7" d="M226.71 380.963s14.335 29.686 15.657 34.93c1.019 4.037-6.463 9.753-9.425 6.62-2.961-3.132-10.757-40.257-10.757-40.257l4.525-1.293z"/><path fill="#CE9006" d="M268.315 441.894c2.358-1.591 1.85 3.16 4.709 1.515 2.368.931 3.518.67 3.518.67l1.675 11.054s3.246 25.082 1.499 39.734c-7.471-1.568-15.708-5.104-15.708-5.104s.644-5.155 2.486-11.52c3.721-12.851-1.732-33.952 1.821-36.349z"/><path fill="#E9A4D7" d="m289.996 415.938 2.373 17.003a10.158 10.158 0 0 1-9.67 6.082l-1.953-.069-3.799-17.875 13.049-5.141z"/><path fill="#110FAB" d="M269.417 416.533c-.077-2.348 3.156-4.007 5.02-2.579 1.327 1.019 1.621 2.973 1.145 4.576-.478 1.604-1.568 2.941-2.634 4.229a73.466 73.466 0 0 0 16.121 8.137c2.364-3.423 4.728-6.849 7.091-10.274 1.068-1.549 2.155-3.134 2.647-4.951 1.118-4.128-.542-11.412-3.293-14.689-3.872-4.61-9.134-6.644-15.135-7.128-4.643-.374-10.269 2.832-13.274 6.449-3.963 4.773.46 11.105 2.312 16.23z"/><circle cx="291.518" cy="399.464" r="11.925" fill="#F0C53B"/><circle cx="293.545" cy="397.438" r="12.808" fill="#110FAB"/><path fill="#F0C53B" d="m270.873 440.691 4.689 3.255c1.617 1.12 3.265 2.272 4.425 3.863 1.16 1.59 1.76 3.729 1.043 5.561-.977 2.501-3.898 3.557-6.521 4.128a55.557 55.557 0 0 1-11.526 1.267c-3.823-1.435-7.6-3.055-11.016-5.294-7.071-4.632-11.632-12.207-15.312-19.818a152.655 152.655 0 0 1-5.16-11.938c2.495.241 4.538-.545 6.905-1.368 2.367-.823 4.454-3.012 4.313-5.516 2.803 5.524 5.474 10.824 8.275 16.346.989 1.95 1.989 3.917 3.376 5.608 3.332 4.059 11.326 4.753 16.509 3.906z"/></svg>