<svg xmlns="http://www.w3.org/2000/svg" width="52.55mm" height="10.05mm" viewBox="0 0 148.96 28.5">
  <g>
    <path d="M15.48,25.16a12.09,12.09,0,0,1-4.58-.89,11.83,11.83,0,0,1-3.74-2.45A11.2,11.2,0,0,1,4.64,18.2a11.06,11.06,0,0,1,0-8.88A11.34,11.34,0,0,1,7.16,5.69,11.8,11.8,0,0,1,10.9,3.25a12.1,12.1,0,0,1,9.16,0A11.91,11.91,0,0,1,23.8,5.69a11.5,11.5,0,0,1,2.52,3.63,11.17,11.17,0,0,1,0,8.88,11.35,11.35,0,0,1-2.52,3.62,11.94,11.94,0,0,1-3.74,2.45A12.13,12.13,0,0,1,15.48,25.16Z" style="fill: #1a093e"/>
    <path d="M21.15,10.87a2.71,2.71,0,0,0,0-.29c0-2.23-2.1-4-4.68-4a4.86,4.86,0,0,0-4,2,3.17,3.17,0,0,0-.43,0,4.15,4.15,0,0,0-4,2.88A4,4,0,0,0,9.54,18.9a4.75,4.75,0,0,0,1.3.19h9.22a4.79,4.79,0,0,0,1-.11,4.09,4.09,0,0,0,.09-8.11Z" style="fill: #fff;stroke: #fff;stroke-miterlimit: 10"/>
  </g>
  <g>
    <path d="M16.81,16.39a.43.43,0,0,0-.06-.63,2.19,2.19,0,0,0-1.27-.41,2.16,2.16,0,0,0-1.27.41.42.42,0,0,0-.07.63l1,1.12a.39.39,0,0,0,.59,0Z" style="fill: #1a093e"/>
    <path d="M15.48,10.78a6.22,6.22,0,0,1,4.31,1.77.4.4,0,0,0,.58,0l0,0a.42.42,0,0,0,0-.59,6.93,6.93,0,0,0-9.82,0,.42.42,0,0,0,0,.59l0,0a.4.4,0,0,0,.58,0A6.22,6.22,0,0,1,15.48,10.78Z" style="fill: #1a093e"/>
    <path d="M15.48,12.59a4.6,4.6,0,0,1,3.14,1.26.4.4,0,0,0,.56,0l0,0a.43.43,0,0,0,0-.59,5.36,5.36,0,0,0-7.44,0,.41.41,0,0,0,0,.59l0,0a.4.4,0,0,0,.57,0A4.56,4.56,0,0,1,15.48,12.59Z" style="fill: #1a093e"/>
    <path d="M15.48,14.41a3,3,0,0,1,1.95.73.4.4,0,0,0,.56,0l0,0a.42.42,0,0,0,0-.6,3.77,3.77,0,0,0-5.05,0,.43.43,0,0,0,0,.6l0,0a.41.41,0,0,0,.56,0A3,3,0,0,1,15.48,14.41Z" style="fill: #1a093e"/>
  </g>
  <g>
    <path d="M32.84,1.13H39.1v22.1c-.57,4.18-7.44,3.65-10.48,2.58V22.52c2.46.49,4,.67,4.22-1.46Z" style="stroke: #000;stroke-miterlimit: 10"/>
    <path d="M49.13,26.66c-5.67-.15-7.29-2.15-7.33-8.39h5.7c.26,3.45-.24,4.72,1.63,5.54Zm1.6,0V23.81c2.91,0,2.15-5.72,1-6.66-.83-1-5.68-3.6-6.77-4.28C39.13,9.46,42-.21,49.13.79V3.64c-6.68,4.53,7,9,8.11,11.19C60.49,19.68,57.88,27.82,50.73,26.66Zm0-25.87c4.75.18,6.73,1.8,7.21,7H52.56c-.24-2.46,0-3.72-1.83-4.11Z" style="stroke: #000;stroke-miterlimit: 10"/>
    <path d="M69.21,4C66,3.68,66,23.88,69.21,23.5v3.23C57.62,28.58,57.56-1,69.21.79Zm9.4,22.28h-4.9v-.95a4,4,0,0,1-3.11,1.39V23.54c2.66-.18,1.91-3.67,2-5.57H71v-3.4h7.61ZM70.84.79c5.58.22,7.57,2.46,8.09,8.52h-6c-.29-3.2.17-4.72-2.07-5.3Z" style="stroke: #000;stroke-miterlimit: 10"/>
  </g>
  <g>
    <path d="M85,17.78c-2.09-.05-2.63-.84-2.65-3.15h2.06c.1,1.29-.09,1.77.59,2.08Zm.58,0V16.71c2.26-1.32-.69-3.55-2.09-4.11C81.37,11.34,82.32,7.7,85,8.06V9.13c-2.42,1.68,2.5,3.37,2.94,4.2C89.06,15.1,88.21,18.21,85.55,17.78Zm0-9.72c1.75.07,2.44.71,2.61,2.61h-2c-.09-.91,0-1.39-.66-1.54Z"/>
    <path d="M92.23,9.27c-1.18,0-1.17,7.34,0,7.33v1.21c-4.23.61-4.25-10.35,0-9.75Zm.48,0c1.18,0,1.17,7.34,0,7.33v1.21c4.23.61,4.25-10.35,0-9.75Z"/>
    <path d="M101.16,17.64H97V8.2h2.25v8h1.89Z"/>
    <path d="M103.76,17.5c-2.79-1-1-7-1.49-9.3h2.26c-.09,1.9,0,8.11.52,9.56A3.34,3.34,0,0,1,103.76,17.5Zm1.79.26c.6-1.54.64-7.58.55-9.56h2.24C107.83,10.75,110.07,18.12,105.55,17.76Z"/>
    <path d="M112.49,9.27c-1.18,0-1.17,7.34,0,7.33v1.21c-4.23.61-4.25-10.35,0-9.75Zm.61-1.21c2.06.08,2.74,1,2.93,3.2h-2.18c-.11-1.19.07-1.77-.75-2Zm0,9.75c2.06-.09,2.75-1,2.93-3.2h-2.18c-.11,1.19.07,1.76-.75,2Z"/>
    <path d="M119.55,17.64H117.3V8.2h2.25Z"/>
    <path d="M123.78,9.27c-1.19,0-1.17,7.34,0,7.33v1.21c-4.23.61-4.25-10.35,0-9.75Zm.47,0c1.19,0,1.17,7.34,0,7.33v1.21c4.23.61,4.25-10.35,0-9.75Z"/>
    <path d="M128.61,17.64V8.21c2-.89,2.73,3.17,3.65,4v-4h2.05v9.43c-2,.89-2.71-3.21-3.65-4v4Z"/>
    <path d="M140,17.64h-4.46V8.2h4.27V9.59h-2.15v2.55h1.75v1.28h-1.75v2.86H140Z"/>
    <path d="M143.11,17.78c-2.09-.05-2.64-.84-2.65-3.15h2.06c.1,1.29-.1,1.77.59,2.08Zm.58,0V16.71c2.25-1.32-.7-3.55-2.09-4.11-2.09-1.26-1.14-4.9,1.51-4.54V9.13c-2.42,1.68,2.5,3.37,2.94,4.2C147.2,15.1,146.35,18.21,143.69,17.78Zm0-9.72c1.75.07,2.44.71,2.61,2.61h-2c-.09-.91,0-1.39-.66-1.54Z"/>
  </g>
</svg>
