<?xml version="1.0" encoding="utf-8"?>
<!-- Generator: Adobe Illustrator 24.1.0, SVG Export Plug-In . SVG Version: 6.00 Build 0)  -->
<svg version="1.1" id="Capa_1" xmlns="http://www.w3.org/2000/svg" xmlns:xlink="http://www.w3.org/1999/xlink" x="0px" y="0px"
	 width="148.96px" height="28.5px" viewBox="0 0 148.96 28.5" style="enable-background:new 0 0 148.96 28.5;" xml:space="preserve"
	>
<style type="text/css">
	.st0{fill:none;stroke:#FFFFFF;stroke-width:1.7274;stroke-miterlimit:10;}
	.st1{fill:#FFFFFF;}
	.st2{fill:#1A093E;}
	.st3{fill:#FFFFFF;stroke:#FFFFFF;stroke-miterlimit:10;}
</style>
<g>
	<g>
		<path class="st0" d="M15.48,25.16c-1.59,0-3.13-0.3-4.58-0.9c-1.4-0.57-2.66-1.4-3.74-2.44c-1.08-1.05-1.93-2.27-2.52-3.63
			c-0.61-1.41-0.92-2.9-0.92-4.44s0.31-3.03,0.92-4.44c0.59-1.36,1.44-2.58,2.52-3.63S9.5,3.82,10.9,3.25
			c1.45-0.59,2.99-0.9,4.58-0.9c1.59,0,3.13,0.3,4.58,0.9c1.4,0.57,2.66,1.4,3.74,2.44c1.08,1.05,1.93,2.27,2.52,3.63
			c0.61,1.41,0.92,2.9,0.92,4.44s-0.31,3.03-0.92,4.44c-0.59,1.36-1.44,2.58-2.52,3.63c-1.08,1.05-2.34,1.87-3.74,2.44
			C18.61,24.86,17.06,25.16,15.48,25.16z"/>
	</g>
	<path class="st1" d="M21.15,10.87c0.01-0.1,0.01-0.2,0.01-0.3c0-2.23-2.1-4.05-4.68-4.05c-1.68,0-3.2,0.78-4.03,1.99
		C12.31,8.5,12.17,8.5,12.03,8.5c-1.85,0-3.46,1.2-3.98,2.89c-1.27,0.71-2.09,2.05-2.09,3.51c0,2.03,1.53,3.73,3.58,4.01
		c0.42,0.13,0.85,0.19,1.3,0.19h9.22c0.34,0,0.67-0.04,1-0.11c2.06-0.27,3.61-2,3.61-4.06C24.67,12.9,23.16,11.18,21.15,10.87z"/>
</g>
<g>
	<path class="st2" d="M16.81,16.39c0.17-0.18,0.14-0.48-0.06-0.63c-0.36-0.26-0.8-0.42-1.27-0.42c-0.47,0-0.91,0.15-1.27,0.42
		c-0.2,0.15-0.23,0.44-0.06,0.63l1.04,1.12c0.16,0.17,0.43,0.17,0.59,0L16.81,16.39z"/>
	<path class="st2" d="M15.48,10.78c1.65,0,3.17,0.67,4.32,1.77c0.16,0.16,0.42,0.15,0.58-0.02l0.03-0.04
		c0.15-0.17,0.15-0.43-0.02-0.59c-1.3-1.27-3.02-2.04-4.91-2.04c-1.89,0-3.61,0.77-4.91,2.04c-0.16,0.16-0.17,0.42-0.02,0.59
		l0.03,0.04c0.15,0.17,0.41,0.17,0.58,0.02C12.31,11.45,13.82,10.78,15.48,10.78z"/>
	<path class="st2" d="M15.48,12.59c1.2,0,2.29,0.47,3.14,1.25c0.16,0.15,0.42,0.14,0.57-0.02l0.03-0.04
		c0.16-0.17,0.15-0.43-0.02-0.59c-1-0.94-2.3-1.51-3.72-1.51c-1.42,0-2.72,0.57-3.72,1.51c-0.17,0.16-0.18,0.42-0.02,0.59l0.03,0.04
		c0.15,0.16,0.4,0.18,0.57,0.02C13.18,13.06,14.28,12.59,15.48,12.59z"/>
	<path class="st2" d="M15.48,14.41c0.74,0,1.42,0.27,1.96,0.73c0.17,0.14,0.41,0.13,0.56-0.03l0.04-0.04
		c0.16-0.17,0.15-0.44-0.03-0.6c-0.69-0.61-1.57-0.97-2.53-0.97c-0.96,0-1.84,0.36-2.53,0.97c-0.17,0.15-0.19,0.43-0.03,0.6
		l0.04,0.04c0.15,0.16,0.39,0.17,0.56,0.03C14.06,14.68,14.74,14.41,15.48,14.41z"/>
</g>
<g>
	<path class="st3" d="M32.84,1.13h6.25v22.1c-0.57,4.18-7.44,3.65-10.48,2.58v-3.29c2.46,0.49,3.97,0.67,4.22-1.46
		C32.84,21.06,32.84,1.13,32.84,1.13z"/>
	<path class="st3" d="M49.13,26.66c-5.67-0.15-7.29-2.15-7.33-8.39h5.7c0.26,3.44-0.24,4.72,1.63,5.53V26.66z M50.73,26.66v-2.85
		c2.91-0.04,2.15-5.71,1-6.65c-0.83-1.03-5.68-3.6-6.77-4.28c-5.82-3.41-3-13.08,4.18-12.09v2.85c-6.69,4.53,6.96,8.98,8.11,11.19
		C60.49,19.68,57.88,27.82,50.73,26.66z M50.73,0.79c4.75,0.19,6.73,1.81,7.21,6.96h-5.38c-0.24-2.46-0.01-3.72-1.83-4.11V0.79z"/>
	<path class="st3" d="M69.21,4.01c-3.24-0.33-3.21,19.87,0,19.49v3.23c-11.59,1.86-11.65-27.76,0-25.94V4.01z M78.61,26.29h-4.9
		v-0.95c-0.8,0.93-1.93,1.4-3.11,1.39v-3.19c2.65-0.18,1.9-3.66,2.03-5.57H71v-3.4h7.61V26.29z M70.84,0.79
		c5.58,0.22,7.57,2.47,8.09,8.52h-6.01c-0.3-3.2,0.17-4.72-2.07-5.3V0.79z"/>
</g>
<g>
	<path class="st1" d="M84.97,17.78c-2.1-0.06-2.64-0.85-2.66-3.15h2.06c0.1,1.29-0.09,1.77,0.59,2.08V17.78z M85.55,17.78v-1.07
		c2.26-1.33-0.69-3.55-2.09-4.11c-2.08-1.27-1.13-4.9,1.51-4.55v1.07c-2.42,1.68,2.49,3.37,2.94,4.21
		C89.06,15.1,88.21,18.21,85.55,17.78z M85.55,8.06c1.75,0.07,2.44,0.71,2.61,2.62h-1.95c-0.09-0.92,0.01-1.39-0.66-1.54V8.06z"/>
	<path class="st1" d="M92.23,9.27c-1.18,0.01-1.17,7.34,0,7.33v1.21c-4.23,0.61-4.25-10.35,0-9.75V9.27z M92.71,9.27
		c1.18,0.01,1.17,7.34,0,7.33v1.21c4.23,0.61,4.25-10.35,0-9.75V9.27z"/>
	<path class="st1" d="M101.16,17.64h-4.14V8.2h2.25v7.99h1.89V17.64z"/>
	<path class="st1" d="M103.76,17.5c-2.79-0.97-1.01-6.97-1.49-9.31h2.25c-0.09,1.91-0.04,8.11,0.52,9.56
		C104.6,17.76,104.17,17.67,103.76,17.5z M105.55,17.76c0.6-1.54,0.63-7.57,0.55-9.56h2.24C107.83,10.75,110.07,18.12,105.55,17.76z
		"/>
	<path class="st1" d="M112.49,9.27c-1.18,0.01-1.17,7.34,0,7.33v1.21c-4.23,0.61-4.25-10.35,0-9.75V9.27z M113.1,8.06
		c2.06,0.09,2.74,0.96,2.93,3.2h-2.18c-0.11-1.19,0.07-1.77-0.75-1.99V8.06z M113.11,17.81c2.06-0.09,2.74-0.96,2.93-3.2h-2.18
		c-0.11,1.19,0.07,1.77-0.75,1.99V17.81z"/>
	<path class="st1" d="M119.55,17.64h-2.25V8.2h2.25V17.64z"/>
	<path class="st1" d="M123.78,9.27c-1.18,0.01-1.17,7.34,0,7.33v1.21c-4.23,0.61-4.25-10.35,0-9.75V9.27z M124.25,9.27
		c1.18,0.01,1.17,7.34,0,7.33v1.21c4.23,0.61,4.25-10.35,0-9.75V9.27z"/>
	<path class="st1" d="M128.61,17.64V8.21c2.02-0.89,2.73,3.17,3.65,3.97V8.21h2.05v9.43c-2,0.89-2.71-3.22-3.65-3.96v3.96H128.61z"
		/>
	<path class="st1" d="M139.95,17.64h-4.46V8.2h4.27v1.39h-2.15v2.55h1.75v1.28h-1.75v2.86h2.34V17.64z"/>
	<path class="st1" d="M143.11,17.78c-2.1-0.06-2.64-0.85-2.66-3.15h2.06c0.1,1.29-0.09,1.77,0.59,2.08V17.78z M143.69,17.78v-1.07
		c2.26-1.33-0.69-3.55-2.09-4.11c-2.08-1.27-1.13-4.9,1.51-4.55v1.07c-2.42,1.68,2.49,3.37,2.94,4.21
		C147.2,15.1,146.35,18.21,143.69,17.78z M143.69,8.06c1.75,0.07,2.44,0.71,2.61,2.62h-1.95c-0.09-0.92,0.01-1.39-0.66-1.54V8.06z"
		/>
</g>
</svg>
